<svg xmlns="http://www.w3.org/2000/svg" xmlns:xlink="http://www.w3.org/1999/xlink" xmlns:fi="http://pattern.flaticon.com/" x="0" y="0" width="1000" height="500" viewBox="0 0 1750 875"><rect x="0px" y="0px" width="100%" height="100%" opacity="1" fill="#ffe5c7"/><defs><g transform="matrix(0.17578125 0 0 0.17578125 305 305)" id="L1_169"><path d="M256,480.215c0,13.413,10.873,24.286,24.286,24.286h152.698c13.413,0,24.286-10.873,24.286-24.286  V258.076c0-5.947-2.182-11.687-6.133-16.133l-22.495-25.312l-72.006-22.268l-72.006,22.268l-22.495,25.312  c-3.951,4.445-6.133,10.186-6.133,16.133v222.139H256z" fill="#fedd00"/><path d="M292.132,241.943l22.495-25.312l57.006-17.629l-15-4.639l-72.006,22.268l-22.495,25.312  c-3.951,4.445-6.133,10.186-6.133,16.133l-54.614,115.7L256,480.214l0,0c0,13.413,10.873,24.286,24.286,24.286h30  c-13.413,0-24.286-10.873-24.286-24.286V258.076C286,252.129,288.182,246.389,292.132,241.943z" fill="#fece00"/><path d="M374.174,65.726c-1.308-4.217-5.209-7.092-9.625-7.092h-15.83c-4.416,0-8.317,2.875-9.625,7.092  l-32.058,106.369l49.598,22.268l49.598-22.268L374.174,65.726z" fill="#fedd00"/><g><path d="M172.905,14.592c-1.308-4.217-5.209-7.092-9.625-7.092h-15.83c-4.415,0-8.317,2.875-9.625,7.092   l-32.058,106.369l49.598,22.268l49.598-22.268L172.905,14.592z" fill="#fa7578"/><path d="M249.867,190.809l-22.495-25.312l-72.006-22.268L83.36,165.497l-22.495,25.312   c-3.951,4.445-6.133,10.186-6.133,16.133v273.273c0,13.413,10.873,24.286,24.286,24.286h152.698   c13.413,0,24.286-10.873,24.286-24.286V206.942C256,200.995,253.818,195.255,249.867,190.809z" fill="#fa7578"/></g><g><path d="M84.731,480.214V206.942c0-5.947,2.182-11.688,6.133-16.133l22.495-25.312l57.006-17.629l-15-4.639   l-72.006,22.268l-22.495,25.312c-3.951,4.445-6.133,10.186-6.133,16.133v273.272c0,13.413,10.873,24.286,24.286,24.286h30   C95.604,504.5,84.731,493.627,84.731,480.214z" fill="#f9545b"/><path d="M227.372,120.961H83.359c-5.133,0-9.294,4.161-9.294,9.294v25.949c0,5.133,4.161,9.294,9.294,9.294   h144.013c5.133,0,9.294-4.161,9.294-9.294v-25.949C236.666,125.122,232.505,120.961,227.372,120.961z" fill="#f9545b"/></g><path d="M104.065,156.203v-25.949c0-5.133,4.161-9.293,9.294-9.293h-30c-5.133,0-9.294,4.161-9.294,9.293  v25.949c0,5.133,4.161,9.294,9.294,9.294h30C108.226,165.497,104.065,161.336,104.065,156.203z" fill="#e64047"/><path d="M428.64,172.095H284.628c-5.133,0-9.294,4.161-9.294,9.294v25.949c0,5.133,4.161,9.294,9.294,9.294  H428.64c5.133,0,9.294-4.161,9.294-9.294v-25.949C437.934,176.256,433.773,172.095,428.64,172.095z" fill="#fece00"/><path d="M305.334,207.337v-25.949c0-5.133,4.161-9.293,9.294-9.293h-30c-5.133,0-9.294,4.161-9.294,9.293  v25.949c0,5.133,4.161,9.294,9.294,9.294h30C309.495,216.631,305.334,212.47,305.334,207.337z" fill="#cca600"/><path d="M109.345,316.706v-9.686c0-4.142-3.358-7.5-7.5-7.5s-7.5,3.358-7.5,7.5v9.686c0,4.142,3.358,7.5,7.5,7.5  S109.345,320.848,109.345,316.706z"/><path d="M216.386,316.706v-9.686c0-4.142-3.358-7.5-7.5-7.5s-7.5,3.358-7.5,7.5v9.686c0,4.142,3.358,7.5,7.5,7.5  S216.386,320.848,216.386,316.706z"/><path d="M155.365,331.364c8.49,0,16.463-3.552,21.877-9.745c2.726-3.118,2.408-7.856-0.71-10.583  c-3.118-2.726-7.857-2.409-10.583,0.71c-2.565,2.934-6.423,4.617-10.584,4.617s-8.019-1.683-10.583-4.617  c-2.726-3.118-7.464-3.437-10.583-0.71s-3.437,7.464-0.71,10.583C138.903,327.813,146.876,331.364,155.365,331.364z"/><path d="M295.614,349.432v9.686c0,4.142,3.358,7.5,7.5,7.5s7.5-3.358,7.5-7.5v-9.686c0-4.143-3.358-7.5-7.5-7.5  S295.614,345.289,295.614,349.432z"/><path d="M402.655,349.432v9.686c0,4.142,3.358,7.5,7.5,7.5s7.5-3.358,7.5-7.5v-9.686c0-4.143-3.358-7.5-7.5-7.5  S402.655,345.289,402.655,349.432z"/><path d="M367.218,354.159c-2.565,2.934-6.422,4.617-10.583,4.617s-8.019-1.683-10.584-4.617c-2.727-3.119-7.464-3.437-10.583-0.71  s-3.437,7.464-0.71,10.583c5.414,6.193,13.387,9.745,21.877,9.745c8.489,0,16.463-3.552,21.876-9.745  c2.726-3.119,2.408-7.856-0.71-10.583C374.682,350.723,369.944,351.041,367.218,354.159z"/><path d="M79.017,512h152.698c9.731,0,18.451-4.4,24.286-11.311C261.836,507.6,270.555,512,280.285,512h152.698  c17.527,0,31.786-14.259,31.786-31.786V435.12c0-4.142-3.358-7.5-7.5-7.5s-7.5,3.358-7.5,7.5v45.094  c0,9.255-7.53,16.786-16.786,16.786H280.285c-9.254,0-16.784-7.529-16.785-16.782v-0.003V258.073c0-4.114,1.506-8.073,4.238-11.147  l20.258-22.795h137.275l20.258,22.795c2.733,3.075,4.239,7.035,4.239,11.15V405.12c0,4.142,3.358,7.5,7.5,7.5s7.5-3.358,7.5-7.5  V258.076c0-7.792-2.851-15.291-8.027-21.115l-16.002-18.007c2.9-3.02,4.695-7.109,4.695-11.617v-25.949  c0-9.26-7.534-16.794-16.793-16.794h-16.836l-30.467-101.09c-2.295-7.399-9.042-12.37-16.788-12.37h-15.83  c-7.747,0-14.493,4.971-16.806,12.427l-30.45,101.033h-16.835c-9.26,0-16.794,7.534-16.794,16.794v25.949  c0,4.507,1.794,8.598,4.695,11.617l-9.029,10.16v-22.173c0-7.792-2.851-15.291-8.027-21.114l-16.003-18.007  c2.901-3.02,4.695-7.109,4.695-11.617v-25.949c0-9.26-7.534-16.794-16.793-16.794h-16.836L180.069,12.37  C177.774,4.971,171.028,0,163.281,0H147.45c-7.747,0-14.493,4.971-16.806,12.427l-30.45,101.033H83.359  c-9.26,0-16.793,7.534-16.793,16.794v25.949c0,4.508,1.794,8.598,4.695,11.617l-16.003,18.006  c-5.176,5.824-8.027,13.323-8.027,21.115v38.179c0,4.142,3.358,7.5,7.5,7.5s7.5-3.358,7.5-7.5v-38.179  c0-4.115,1.505-8.074,4.239-11.15l20.258-22.794h137.276l20.258,22.794c2.733,3.076,4.239,7.036,4.239,11.15v51.13v222.143  c0,9.255-7.53,16.786-16.786,16.786H79.017c-9.256,0-16.786-7.53-16.786-16.786V275.12c0-4.142-3.358-7.5-7.5-7.5  s-7.5,3.358-7.5,7.5v205.094C47.231,497.741,61.49,512,79.017,512z M346.258,67.948c0.336-1.085,1.326-1.813,2.461-1.813h15.83  c1.136,0,2.125,0.729,2.444,1.756l29.145,96.705H317.13L346.258,67.948z M282.834,181.389c0-0.989,0.805-1.794,1.794-1.794h144.013  c0.989,0,1.793,0.805,1.793,1.794v25.949c0,0.989-0.804,1.793-1.793,1.793l0,0H284.628c0,0,0,0-0.001,0  c-0.989,0-1.793-0.805-1.793-1.793L282.834,181.389L282.834,181.389z M144.99,16.813c0.336-1.085,1.325-1.813,2.461-1.813h15.831  c1.136,0,2.125,0.729,2.443,1.756l29.146,96.705h-79.008L144.99,16.813z M81.566,130.254c0-0.989,0.805-1.794,1.793-1.794h144.013  c0.989,0,1.793,0.805,1.793,1.794v25.949c0,0.989-0.804,1.793-1.793,1.793h-0.001H83.359c0,0,0,0-0.001,0  c-0.989,0-1.793-0.805-1.793-1.793L81.566,130.254L81.566,130.254z"/></g><g transform="matrix(0.1367184817790985 0 0 0.1367184817790985 140 140)" id="L1_170"><g><rect x="86px" y="105px" width="27px" height="72px" fill="#3b484a"/><rect x="341px" y="105px" width="27px" height="72px" fill="#3b484a"/></g><path d="M315.284,157.347H62.407c-18.628,0-33.722,15.094-33.722,33.713v220.72l13.98,33.638h272.619  l36.361-130.601L315.284,157.347z" fill="#80e2ff"/><path d="M492.967,375.419l-15.421-16.717l15.421-16.717c0-14.703-11.925-26.618-26.627-26.618h-13.929  l-39.065-133.762c-4.195-14.377-17.379-24.259-32.361-24.259h-65.701v288.072h154.051l23.632-33.638V375.419z" fill="#eb98a3"/><g><path d="M497.291,411.78h-27.955c-3.982,0-7.209,3.228-7.209,7.209v19.22c0,3.982,3.228,7.209,7.209,7.209   h27.955c3.982,0,7.209-3.228,7.209-7.209v-19.22C504.5,415.008,501.272,411.78,497.291,411.78z" fill="#d4d2d3"/><path d="M42.664,411.78H14.709c-3.982,0-7.209,3.228-7.209,7.209v19.22c0,3.982,3.228,7.209,7.209,7.209   h27.955c3.982,0,7.209-3.228,7.209-7.209v-19.22C49.873,415.008,46.646,411.78,42.664,411.78z" fill="#d4d2d3"/></g><path d="M424.665,310.156h-84.208V182.52h40.528c3.767,0,7.142,2.527,8.195,6.135L424.665,310.156z" fill="#80e2ff"/><rect x="462px" y="341px" width="30px" height="33px" fill="#fece00"/><circle cx="132" cy="445" r="46" fill="#3b484a"/><circle cx="132" cy="445" r="23" fill="#d4d2d3"/><circle cx="387" cy="445" r="46" fill="#3b484a"/><circle cx="387" cy="445" r="23" fill="#d4d2d3"/><path d="M266.802,193.596 77.11,193.596 77.11,317.615 171.984,334.863 266.859,317.615z" fill="#fa7578"/><path d="M124.547,243.879c6.838,4.435,14.979,7.022,23.719,7.022s16.881-2.587,23.719-7.022  c6.838,4.435,14.979,7.022,23.719,7.022c8.739,0,16.881-2.587,23.718-7.022c6.838,4.435,14.979,7.022,23.718,7.022  c8.725,0,16.855-2.579,23.686-7.001l-0.023-50.305H77.11v50.283c6.838,4.435,14.979,7.022,23.719,7.022  C109.568,250.902,117.709,248.314,124.547,243.879z" fill="#e0696c"/><path d="M105.08,334.862 105.08,202.919 238.845,202.919 238.878,334.865z" fill="#fece00"/><path d="M238.845,202.919H105.08v47.77c7.125-0.693,13.752-3.103,19.467-6.81  c6.838,4.435,14.979,7.022,23.719,7.022s16.881-2.587,23.719-7.022c6.838,4.435,14.979,7.022,23.719,7.022  c8.739,0,16.881-2.587,23.718-7.022c5.707,3.701,12.323,6.109,19.436,6.806L238.845,202.919z" fill="#e6bb00"/><path d="M77.11,193.596v13.587c0,13.099,10.619,23.719,23.719,23.719s23.719-10.619,23.719-23.719v-13.587  H77.11z" fill="#eb98a3"/><path d="M124.547,193.596v13.587c0,13.099,10.619,23.719,23.719,23.719c13.099,0,23.719-10.619,23.719-23.719  v-13.587H124.547z" fill="#eeeced"/><path d="M171.984,193.596v13.587c0,13.099,10.619,23.719,23.719,23.719c13.099,0,23.719-10.619,23.719-23.719  v-13.587H171.984z" fill="#eb98a3"/><path d="M219.421,193.596v13.587c0,13.099,10.619,23.719,23.719,23.719c13.099,0,23.719-10.619,23.719-23.719  v-13.587H219.421z" fill="#eeeced"/><path d="M385.741,20.201H70.48c-10.154,0-18.385,8.231-18.385,18.385v64.738  c0,10.154,8.231,18.385,18.385,18.385h315.26c10.154,0,18.385-8.231,18.385-18.385V38.586  C404.126,28.432,395.894,20.201,385.741,20.201z" fill="#eb98a3"/><rect x="75px" y="43px" width="305px" height="54px" fill="#eeeced"/><rect x="75px" y="43px" width="24px" height="54px" fill="#d4d2d3"/><path d="M266.859,317.615H77.11c-12.486,0-22.607,10.122-22.607,22.607v11.889h234.964v-11.889  C289.466,327.736,279.344,317.615,266.859,317.615z" fill="#eb98a3"/><path d="M340.457,317.656c0,0,84.04,0,84.208,0c4.916,0,8.577-4.889,7.199-9.603L396.38,186.552  c-1.983-6.79-8.313-11.532-15.395-11.532h-40.528c-4.142,0-7.5,3.357-7.5,7.5v127.636  C332.957,314.298,336.315,317.656,340.457,317.656z M347.957,190.02h33.028c0.431,0,0.877,0.331,0.996,0.737l32.68,111.899h-66.704  L347.957,190.02L347.957,190.02z"/><path d="M340.457,349.355h26.105c4.142,0,7.5-3.358,7.5-7.5s-3.358-7.5-7.5-7.5h-26.105c-4.142,0-7.5,3.358-7.5,7.5  S336.315,349.355,340.457,349.355z"/><path d="M132.547,414.61c-16.988,0-30.808,13.821-30.808,30.809s13.82,30.808,30.808,30.808s30.808-13.82,30.808-30.808  S149.535,414.61,132.547,414.61z M132.547,461.227c-8.717,0-15.808-7.092-15.808-15.808c0-8.717,7.091-15.809,15.808-15.809  s15.808,7.092,15.808,15.809C148.355,454.135,141.264,461.227,132.547,461.227z"/><path d="M387.77,414.61c-16.988,0-30.808,13.821-30.808,30.809s13.82,30.808,30.808,30.808s30.809-13.82,30.809-30.808  S404.757,414.61,387.77,414.61z M387.77,461.227c-8.717,0-15.808-7.092-15.808-15.808c0-8.717,7.091-15.809,15.808-15.809  s15.809,7.092,15.809,15.809C403.578,454.135,396.486,461.227,387.77,461.227z"/><path d="M274.359,193.596c0-4.143-3.358-7.5-7.5-7.5H77.11c-4.142,0-7.5,3.357-7.5,7.5l0,0V311.06  c-12.984,3.341-22.607,15.149-22.607,29.162v11.889c0,4.143,3.358,7.5,7.5,7.5h234.964c4.142,0,7.5-3.357,7.5-7.5v-11.889  c0-14.014-9.625-25.822-22.61-29.162L274.359,193.596z M259.355,310.115h-12.983l-0.019-71.878  c4.709-0.483,9.111-2.018,12.967-4.364L259.355,310.115z M84.61,310.115v-76.267c3.856,2.354,8.259,3.895,12.97,4.384v71.882  L84.61,310.115L84.61,310.115z M259.306,201.096l0.003,7.065c-0.51,8.487-7.556,15.241-16.169,15.241  c-8.943,0-16.219-7.276-16.219-16.219v-6.087H259.306z M211.922,201.096v6.087c0,8.943-7.276,16.219-16.219,16.219  s-16.219-7.276-16.219-16.219v-6.087H211.922z M164.484,201.096v6.087c0,8.943-7.276,16.219-16.219,16.219  s-16.218-7.276-16.218-16.219v-6.087H164.484z M84.61,201.096h32.438v6.087c0,8.943-7.276,16.219-16.219,16.219  s-16.219-7.276-16.219-16.219V201.096z M112.58,236.098c4.654-1.898,8.748-4.888,11.967-8.65  c5.73,6.697,14.234,10.954,23.718,10.954s17.988-4.257,23.719-10.954c5.73,6.697,14.234,10.954,23.719,10.954  s17.988-4.257,23.719-10.954c3.211,3.753,7.292,6.737,11.932,8.636l0.019,74.031H112.58V236.098z M281.966,340.222v4.389H62.002  v-4.389c0-8.33,6.777-15.107,15.107-15.107h189.749C275.189,325.115,281.966,331.892,281.966,340.222z"/><path d="M388.318,98.4V43.509c0-4.142-3.358-7.5-7.5-7.5H148.572c-4.142,0-7.5,3.358-7.5,7.5s3.358,7.5,7.5,7.5h224.746V90.9H82.904  V51.009h36.079c4.142,0,7.5-3.358,7.5-7.5s-3.358-7.5-7.5-7.5H75.404c-4.142,0-7.5,3.358-7.5,7.5V98.4c0,4.142,3.358,7.5,7.5,7.5  h305.414C384.96,105.9,388.318,102.542,388.318,98.4z"/><path d="M466.34,307.868h-8.306l-37.488-128.363c-5.097-17.462-21.365-29.658-39.561-29.658h-3.683v-20.638h8.439  c14.273,0,25.885-11.612,25.885-25.885V38.586c0-14.273-11.612-25.885-25.885-25.885H70.481c-14.273,0-25.885,11.612-25.885,25.885  v64.738c0,14.273,11.612,25.885,25.885,25.885h8.439v20.638H62.408c-22.73,0-41.223,18.488-41.223,41.213v37.747  c0,4.142,3.358,7.5,7.5,7.5s7.5-3.358,7.5-7.5V191.06c0-14.454,11.763-26.213,26.223-26.213h245.376v273.072H185.907  c-0.018-0.125-0.042-0.248-0.061-0.373c-3.783-25.76-27.195-46.006-53.243-46.006c-0.019,0-0.037-0.001-0.056-0.001  s-0.037,0.001-0.056,0.001c-26.213,0.015-49.393,20.077-53.243,46.006c-0.019,0.125-0.043,0.248-0.061,0.373H57.374  c0,0,0-18.896,0-18.929c0-8.004-6.723-14.71-14.709-14.71h-6.479V258.807c0-4.142-3.358-7.5-7.5-7.5s-7.5,3.358-7.5,7.5V404.28  H14.71C6.599,404.28,0,410.879,0,418.99v19.22c0,8.111,6.599,14.709,14.709,14.709H79.2c3.662,26.171,26.183,46.38,53.347,46.38  s49.685-20.209,53.347-46.38h148.529c3.662,26.171,26.183,46.38,53.347,46.38s49.685-20.209,53.347-46.38h56.175  c8.11,0,14.709-6.599,14.709-14.709v-19.22c0-7.02-4.945-12.897-11.532-14.354v-62.649  C500.468,323.173,485.158,307.868,466.34,307.868z M15,419.28h27.374v18.639H15V419.28z M485.468,367.919h-15.841v-18.434h15.841  V367.919z M362.302,149.847h-12.97v-20.638h12.97V149.847z M59.596,103.324V38.586c0-6.002,4.883-10.885,10.885-10.885h315.26  c6.002,0,10.885,4.883,10.885,10.885v64.738c0,6.002-4.883,10.885-10.885,10.885H70.481  C64.479,114.208,59.596,109.326,59.596,103.324z M93.92,149.847v-20.638h12.97v20.638H93.92z M121.89,149.847v-20.638h212.442  v20.638H121.89z M132.547,484.299c-21.438,0-38.88-17.442-38.88-38.88c0-20.696,18.068-38.88,38.88-38.88  c21.015,0,38.88,17.893,38.88,38.88C171.427,466.857,153.985,484.299,132.547,484.299z M322.784,164.847h58.202  c11.574,0,21.921,7.756,25.162,18.862l39.065,133.762c0.934,3.199,3.867,5.397,7.199,5.397h13.929  c7.885,0,14.671,4.793,17.594,11.618h-21.808c-4.142,0-7.5,3.358-7.5,7.5v33.434c0,4.142,3.358,7.5,7.5,7.5h23.341v21.361h-16.132  c-8.01,0-14.709,6.701-14.709,14.709v18.929H441.13c-3.596-25.669-27.378-46.379-53.304-46.379c-0.019,0-0.037-0.001-0.056-0.001  s-0.037,0.001-0.056,0.001c-22.789,0.013-43.791,15.337-51.049,36.896c-1.035,3.074-1.805,6.27-2.255,9.483h-11.625L322.784,164.847  L322.784,164.847z M387.77,484.299c-21.438,0-38.88-17.442-38.88-38.88c0-21.439,17.442-38.88,38.88-38.88  c20.987,0,38.881,17.931,38.881,38.88C426.65,466.857,409.208,484.299,387.77,484.299z M497,437.919h-27.374V419.28H497V437.919z"/></g><g transform="matrix(0.09765625 0 0 0.09765625 150 325)" id="L1_172"><path d="M237.443,152.765h-45.728c-4.103,0-8.205,1.601-11.286,4.804L11.928,332.716  c-9.572,9.95-2.521,26.519,11.286,26.519h45.728l168.502-92.323V152.765z" fill="#cc9e51"/><path d="M29.244,359.235 227.878,152.765 274.556,152.765 274.556,253.171 106.054,359.235z" fill="#9577e1"/><path d="M320.283,152.765h-45.728c-4.103,0-8.205,1.601-11.286,4.804L94.768,332.716  c-9.572,9.95-2.521,26.519,11.286,26.519h45.728l168.502-92.323L320.283,152.765L320.283,152.765z" fill="#cc9e51"/><path d="M500.071,332.716L331.569,157.568c-6.161-6.404-16.411-6.404-22.572,0L140.496,332.716  c-9.572,9.95-2.521,26.519,11.286,26.519h337.004C502.591,359.235,509.643,342.666,500.071,332.716z" fill="#fdc464"/><path d="M263.282,261.665c-4.142,0-7.499,3.358-7.499,7.499v10.316c0,4.142,3.358,7.499,7.499,7.499s7.499-3.358,7.499-7.499  v-10.316C270.781,265.023,267.424,261.665,263.282,261.665z"/><path d="M377.285,261.665c-4.142,0-7.499,3.358-7.499,7.499v10.316c0,4.142,3.358,7.499,7.499,7.499  c4.142,0,7.499-3.358,7.499-7.499v-10.316C384.784,265.023,381.426,261.665,377.285,261.665z"/><path d="M342.505,273.81c-3.118-2.726-7.855-2.408-10.582,0.711c-2.824,3.231-7.066,5.084-11.639,5.084  c-4.573,0-8.815-1.853-11.639-5.084c-2.727-3.119-7.463-3.437-10.582-0.711c-3.119,2.726-3.437,7.463-0.711,10.582  c5.672,6.489,14.031,10.211,22.932,10.211c8.901,0,17.259-3.722,22.932-10.211C345.942,281.274,345.623,276.536,342.505,273.81z"/><path d="M336.973,152.369c-4.407-4.581-10.333-7.103-16.69-7.103l0,0H191.715c-6.356,0-12.284,2.523-16.691,7.103L6.524,327.517  c-6.548,6.807-8.319,16.435-4.621,25.126s11.864,14.091,21.31,14.091h465.571c9.446,0,17.611-5.398,21.311-14.091  c3.699-8.691,1.929-18.319-4.621-25.126L336.973,152.369z M15.704,346.77c-0.496-1.165-1.843-5.246,1.628-8.854l168.502-175.148  c1.553-1.614,3.642-2.503,5.881-2.503h18.542L26.052,351.735h-2.839C18.206,351.735,16.2,347.935,15.704,346.77z M105.739,351.72  c-4.771-0.159-6.709-3.811-7.195-4.951c-1.295-3.043-0.652-6.484,1.628-8.854c0,0,107.266-111.498,107.367-111.603  c2.782-2.892,2.694-7.814-0.205-10.604c-2.984-2.873-7.731-2.78-10.603,0.205c0,0-107.345,111.579-107.367,111.603  c-6.11,6.351-8.109,15.975-4.986,24.218H46.865l184.205-191.471h19.199l-33.859,35.194c-2.872,2.985-2.78,7.732,0.205,10.603  c2.985,2.872,7.732,2.78,10.603-0.205c0,0,41.435-43.069,41.455-43.089c1.449-1.507,3.585-2.453,5.716-2.495  c0.056-0.001,0.11-0.008,0.166-0.008h21.441c0,0-160.887,167.233-160.906,167.253c-6.156,6.399-8.149,15.902-4.986,24.218  C130.106,351.735,105.845,351.723,105.739,351.72z M496.295,346.77c-0.496,1.165-2.502,4.966-7.509,4.966H151.782  c-5.008,0-7.014-3.801-7.509-4.966c-0.496-1.165-1.844-5.246,1.628-8.854l168.501-175.148c1.553-1.614,3.642-2.503,5.881-2.503  c2.24,0,4.329,0.889,5.881,2.503l168.502,175.148C498.138,341.524,496.791,345.605,496.295,346.77z"/></g><g transform="matrix(0.07812514901161194 0 0 0.07812514901161194 242.5 67.5)" id="L1_173"><g><path d="M90.753,91.936l-29.135,4.817c-8.03,1.328-13.464,8.914-12.136,16.944l52.3,316.307l58.214-9.625   l-52.3-316.307C106.369,96.042,98.783,90.609,90.753,91.936z" fill="#fedd00"/><path d="M421.245,91.936l29.135,4.817c8.03,1.328,13.464,8.914,12.136,16.944l-52.3,316.307l-58.214-9.625   l52.3-316.307C405.628,96.042,413.214,90.609,421.245,91.936z" fill="#fedd00"/></g><path d="M255.999,430.234L106.39,455.64l4.776,18.627c4.553,17.784,20.589,30.233,38.952,30.233h211.761  c18.363,0,34.399-12.449,38.952-30.233l4.776-18.627L255.999,430.234z" fill="#e6bb00"/><path d="M151.166,474.267l-4.776-18.627l129.609-22.009l-20-3.396L106.39,455.64l4.776,18.627  c4.553,17.784,20.589,30.232,38.952,30.232h40C171.755,504.5,155.719,492.051,151.166,474.267z" fill="#cca600"/><g><path d="M167.492,83.211c0-8.139-6.598-14.737-14.737-14.737h-29.53c-8.139,0-14.737,6.598-14.737,14.737   v320.602h59.005l29.502-198.178L167.492,83.211z" fill="#fece00"/><path d="M388.773,68.474h-29.53c-8.139,0-14.737,6.598-14.737,14.737l-29.502,122.424l29.502,198.178h59.005   V83.211C403.51,75.072,396.912,68.474,388.773,68.474z" fill="#fece00"/><path d="M285.501,373.326l29.502-198.156L285.501,52.724V22.237c0-8.139-6.598-14.737-14.737-14.737h-29.53   c-8.139,0-14.737,6.598-14.737,14.737v30.487l-29.502,152.91l29.502,167.691l4.539-30.487h49.102L285.501,373.326z" fill="#fece00"/></g><g><path d="M211.759,37.987h-29.53c-8.139,0-14.737,6.598-14.737,14.737v320.602h59.005V52.724   C226.496,44.585,219.898,37.987,211.759,37.987z" fill="#fedd00"/><path d="M300.238,37.987h29.53c8.139,0,14.737,6.598,14.737,14.737v320.602H285.5V52.724   C285.501,44.585,292.099,37.987,300.238,37.987z" fill="#fedd00"/></g><path d="M452.445,272.77l-46.838,182.87H106.39L59.552,272.77c-1.951-7.622,1.077-15.64,7.581-20.07  c30.802-20.975,72.335-38.027,94.113-46.248c6.931-2.622,14.634,1.301,16.504,8.475c7.744,29.542,39.836,51.695,78.249,51.695  s70.506-22.154,78.249-51.695c1.87-7.175,9.573-11.097,16.504-8.475c21.778,8.221,63.311,25.274,94.113,46.248  C451.368,257.13,454.397,265.148,452.445,272.77z" fill="#f9545b"/><path d="M67.133,252.7c-6.504,4.431-9.532,12.449-7.581,20.07l46.838,182.87h40l-45.925-222.464   C88.914,239.125,77.425,245.692,67.133,252.7z" fill="#e64047"/><path d="M184.477,367.837v-14.301c0-4.142-3.358-7.5-7.5-7.5s-7.5,3.358-7.5,7.5v14.301c0,4.142,3.358,7.5,7.5,7.5  S184.477,371.979,184.477,367.837z"/><path d="M342.517,367.837v-14.301c0-4.142-3.358-7.5-7.5-7.5s-7.5,3.358-7.5,7.5v14.301c0,4.142,3.358,7.5,7.5,7.5  S342.517,371.979,342.517,367.837z"/><path d="M255.997,385.907c11.503,0,22.295-4.799,29.609-13.166c2.726-3.119,2.408-7.856-0.711-10.583  c-3.119-2.727-7.857-2.408-10.583,0.71c-4.465,5.108-11.141,8.038-18.316,8.038c-7.175,0-13.851-2.93-18.316-8.038  c-2.726-3.118-7.464-3.437-10.583-0.711s-3.437,7.464-0.711,10.583C233.702,381.108,244.494,385.907,255.997,385.907z"/><path d="M63.745,245.941c-0.277,0.187-0.56,0.372-0.836,0.56c-9.078,6.185-13.348,17.488-10.624,28.129l11.49,44.859  c1.027,4.013,5.114,6.433,9.126,5.405c4.013-1.028,6.433-5.114,5.404-9.126L66.816,270.91c-1.163-4.543,0.661-9.371,4.537-12.011  c28.481-19.401,60.431-33.26,92.545-45.433c6.113-2.317,7.115,5.659,8.513,9.4c7.843,21.106,26.755,38.154,51.767,46.28  c0.025,0.009,0.052,0.011,0.078,0.019c42.027,13.471,98.774-1.68,115.339-46.327c0.009-0.025,0.018-0.05,0.027-0.075  c1.269-3.406,1.462-8.903,5.972-9.565c4.886-0.716,66.343,27.069,90.394,42.621c5.471,3.538,11.104,7.619,9.192,15.09  l-45.394,177.23H112.21l-25.253-98.596c-1.028-4.013-5.113-6.433-9.126-5.405s-6.432,5.114-5.405,9.126l31.475,122.865  c5.408,21.12,24.413,35.87,46.217,35.87h211.761c21.805,0,40.811-14.751,46.217-35.87l51.615-201.5  c2.724-10.64-1.546-21.944-10.625-28.129c-0.275-0.188-0.558-0.372-0.835-0.559l21.663-131.02c0.969-5.86-0.402-11.747-3.861-16.576  c-3.458-4.829-8.591-8.022-14.451-8.991l-29.134-4.817c-3.995-0.661-7.919-0.202-11.458,1.137v-2.463  c0-12.262-9.976-22.237-22.237-22.237h-29.53c-2.534,0-4.967,0.432-7.237,1.216v-9.465c0-12.262-9.976-22.237-22.237-22.237h-29.53  c-2.534,0-4.967,0.432-7.237,1.216v-9.465C293,9.976,283.024,0,270.762,0h-29.53c-12.262,0-22.237,9.976-22.237,22.237v9.465  c-2.271-0.784-4.704-1.216-7.237-1.216h-29.53c-12.262,0-22.237,9.976-22.237,22.237v9.465c-2.271-0.784-4.704-1.216-7.237-1.216  h-29.53c-12.262,0-22.237,9.976-22.237,22.237v2.464c-3.54-1.339-7.463-1.798-11.458-1.138l-29.135,4.817  c-12.097,2-20.312,13.47-18.312,25.567L63.745,245.941z M393.564,472.407C389.857,486.887,376.827,497,361.878,497H150.117  c-14.95,0-27.979-10.113-31.687-24.593c0-0.001,0-0.002-0.001-0.003l-2.375-9.265H395.94L393.564,472.407z M411.704,105.3  c1.226-3.628,4.053-6.669,8.316-5.965c0,0,28.995,4.794,29.133,4.817c3.838,0.635,6.592,4.505,5.961,8.321L434.481,237.26  c-1.81-1.071-17.464-9.744-23.472-12.766c0,0,0-114.814,0-115.025C411.009,108.108,411.244,106.663,411.704,105.3z M359.241,75.974  h29.53c3.991,0,7.237,3.247,7.237,7.237v134.05c-13.973-6.472-28.202-12.379-42.605-17.825c-0.461-0.174-0.928-0.332-1.4-0.471  V83.211C352.004,79.22,355.251,75.974,359.241,75.974z M300.237,45.487h29.53c3.991,0,7.237,3.247,7.237,7.237v147.712  c-4.89,2.556-8.64,7.236-10.012,12.588c-0.005,0.019-0.011,0.038-0.017,0.057c-0.938,3.483-2.249,6.857-3.897,10.065  c-6.053,11.724-16.751,21.414-30.079,27.773V52.724C293,48.733,296.246,45.487,300.237,45.487z M233.995,22.237  c0-3.991,3.247-7.237,7.237-7.237h29.53c3.991,0,7.237,3.247,7.237,7.237c0,0,0,234.092,0,234.12  c-0.17,4.156-44.005,3.202-44.005-0.003C233.995,256.257,233.995,22.237,233.995,22.237z M174.99,52.724  c0-3.991,3.247-7.237,7.237-7.237h29.53c3.991,0,7.237,3.247,7.237,7.237v198.197c-13.283-6.337-23.951-15.983-30.014-27.65  c-4.203-8.088-5.075-18.174-13.99-22.834L174.99,52.724L174.99,52.724z M115.986,83.211c0-3.991,3.247-7.237,7.237-7.237h29.53  c3.991,0,7.237,3.247,7.237,7.237v115.754c-0.47,0.139-0.936,0.295-1.395,0.469c-14.081,5.333-27.992,11.099-41.67,17.395  c-0.314,0.145-0.625,0.286-0.94,0.432V83.211H115.986z M62.841,104.153l29.134-4.817c3.886-0.643,7.679,2.073,8.321,5.959  l0.69,4.171v115.028c-7.905,3.975-15.842,8.25-23.472,12.766L56.881,112.474C56.23,108.537,58.903,104.804,62.841,104.153z"/></g><g transform="matrix(0.07812469452619553 0 0 0.07812469452619553 67.5 67.5)" id="L1_174"><g><path d="M209.887,210.383l49.488-193.008c1.801-7.025,8.956-11.26,15.981-9.458   c7.025,1.801,11.26,8.956,9.458,15.981c-0.03,0.117-0.078,0.289-0.111,0.405l-55.629,191.328   c-1.534,5.275-7.054,8.308-12.329,6.774C211.578,220.903,208.566,215.559,209.887,210.383z" fill="#fdc464"/><path d="M252.732,209.506l77.309-183.642c2.814-6.684,10.513-9.822,17.198-7.008   c6.684,2.814,9.822,10.513,7.008,17.198c-0.047,0.111-0.119,0.275-0.169,0.384L270.94,217.516   c-2.292,4.993-8.198,7.182-13.19,4.889C252.859,220.16,250.666,214.432,252.732,209.506z" fill="#fdc464"/></g><g><path d="M270.94,217.516l39.791-86.665h-24.886l-33.113,78.655c-2.067,4.925,0.127,10.654,5.017,12.899   C262.742,224.698,268.648,222.509,270.94,217.516z" fill="#e6b25b"/><path d="M230.28,130.851l-20.393,79.533c-1.321,5.175,1.691,10.52,6.858,12.022   c5.275,1.534,10.795-1.5,12.329-6.774l24.651-84.78L230.28,130.851L230.28,130.851z" fill="#e6b25b"/></g><path d="M337.925,175.842c-5.307-9.272-15.172-14.992-25.855-14.992H199.931  c-10.683,0-20.549,5.72-25.855,14.992l-23.261,40.641l105.186,25.695l105.186-25.695L337.925,175.842z" fill="#d4d2d3"/><path d="M121.512,216.483 80.668,160.851 109.97,160.851 150.814,216.483 149.26,242.178z" fill="#eeeced"/><path d="M390.488,216.483 431.332,160.851 402.03,160.851 361.186,216.483 362.741,242.178z" fill="#d4d2d3"/><path d="M256.005,265.858 132.63,299.809 149.265,421.172 260.465,450.853 362.745,421.172   379.37,299.809z" fill="#f9545b"/><path d="M189.264,421.172 172.63,299.809 276.004,271.362 256.005,265.858 132.63,299.809   149.265,421.172 260.465,450.852 279.629,445.291z" fill="#e64047"/><path d="M362.74,421.172l-7.4,54.001c-2.309,16.803-16.665,29.325-33.627,29.325H190.276  c-16.961,0-31.318-12.521-33.617-29.325l-7.4-54.001L362.74,421.172L362.74,421.172z" fill="#eeeced"/><path d="M196.66,475.174l-7.4-54.001h-40l7.4,54.001c2.299,16.804,16.656,29.325,33.617,29.325h40  C213.315,504.498,198.959,491.976,196.66,475.174z" fill="#d4d2d3"/><path d="M390.786,216.483 379.37,299.809 132.63,299.809 121.213,216.483z" fill="#eeeced"/><path d="M121.213,216.483 132.63,299.809 172.63,299.809 161.213,216.483z" fill="#d4d2d3"/><path d="M196.864,350.232v9.345c0,4.143,3.358,7.5,7.5,7.5c4.142,0,7.5-3.357,7.5-7.5v-9.345c0-4.142-3.358-7.5-7.5-7.5  C200.222,342.732,196.864,346.09,196.864,350.232z"/><path d="M307.637,367.077c4.142,0,7.5-3.357,7.5-7.5v-9.345c0-4.142-3.358-7.5-7.5-7.5s-7.5,3.358-7.5,7.5v9.345  C300.137,363.72,303.495,367.077,307.637,367.077z"/><path d="M256.001,373.984c8.268,0,16.033-3.459,21.306-9.492c2.726-3.119,2.408-7.857-0.711-10.583  c-3.118-2.726-7.856-2.408-10.583,0.711c-2.424,2.773-6.073,4.364-10.012,4.364c-3.938,0-7.588-1.59-10.013-4.364  c-2.726-3.119-7.463-3.437-10.583-0.71c-3.119,2.726-3.437,7.464-0.71,10.583C239.968,370.524,247.734,373.984,256.001,373.984z"/><path d="M291.921,26.347c0.048-0.171,0.118-0.425,0.158-0.583c1.369-5.338,0.577-10.89-2.23-15.632  c-2.807-4.743-7.292-8.108-12.63-9.477s-10.89-0.577-15.632,2.23c-4.742,2.807-8.108,7.292-9.477,12.63l-35.343,137.839H199.93  c-13.338,0-25.739,7.191-32.365,18.767l-17.532,30.631l-34.019-46.336c-1.413-1.925-3.658-3.062-6.045-3.062H80.668  c-2.827,0-5.414,1.59-6.691,4.112s-1.028,5.548,0.646,7.827l39.351,53.598l35.257,257.303c2.792,20.414,20.439,35.808,41.047,35.808  h131.437c20.602,0,38.252-15.392,41.058-35.807l35.258-257.305l39.35-53.597c1.673-2.279,1.923-5.305,0.646-7.827  c-1.277-2.522-3.864-4.112-6.691-4.112h-29.302c-2.388,0-4.633,1.137-6.045,3.062l-34.019,46.336l-17.532-30.631l0,0  c-6.626-11.576-19.027-18.767-32.365-18.767h-3.418l52.25-113.804c0.075-0.166,0.185-0.413,0.256-0.582  c2.138-5.079,2.17-10.687,0.091-15.791c-2.08-5.104-6.022-9.091-11.101-11.229c-5.08-2.138-10.687-2.17-15.791-0.091  c-5.104,2.08-9.091,6.022-11.23,11.101l-54.893,130.396h-13.242L291.921,26.347z M266.641,19.241  c0.771-3.008,3.847-4.827,6.853-4.056c3.008,0.771,4.828,3.846,4.054,6.863l-38.175,131.305h-7.119L266.641,19.241z   M106.173,168.354l29.832,40.633h-10.694l-29.832-40.633H106.173z M347.911,474.156c-1.79,13.024-13.052,22.846-26.197,22.846  H190.277c-13.147,0-24.404-9.82-26.186-22.843l-6.233-45.483l196.284,0.001L347.911,474.156z M356.204,413.675H155.808  l-14.58-106.363h29.371c4.027,0,7.5-3.466,7.5-7.5c0-4.012-3.482-7.5-7.5-7.5h-31.426l-9.361-68.326H382.19l-9.361,68.326H200.598  c-4.013,0-7.5,3.479-7.5,7.5c0,3.957,3.535,7.5,7.5,7.5h170.175L356.204,413.675z M405.828,168.354h10.694l-29.832,40.633h-10.694  L405.828,168.354z M331.416,179.571L331.416,179.571l16.836,29.415H163.75l16.836-29.415c3.96-6.919,11.374-11.218,19.346-11.218  h112.14C320.043,168.354,327.456,172.651,331.416,179.571z M336.955,28.777c1.205-2.862,4.515-4.209,7.375-3.005  c1.386,0.583,2.462,1.672,3.029,3.064c0.568,1.393,0.559,2.924-0.024,4.31l-55.187,120.208h-7.637L336.955,28.777z"/></g><g transform="matrix(0.0390625 0 0 0.0390625 252.5 340)" id="L1_175"><path d="M164.735,312.547L14.689,462.594c-9.587,9.587-9.587,25.13,0,34.716s25.13,9.587,34.716,0  l150.047-150.047L164.735,312.547z" fill="#fdc464"/><path d="M115.479,361.804c4.543,6.704,9.772,13.078,15.705,19.012c5.934,5.934,12.307,11.163,19.011,15.705  l49.256-49.256l-34.717-34.717L115.479,361.804z" fill="#e6b25b"/><path d="M475.26,36.74L475.26,36.74c-38.986-38.986-102.194-38.986-141.18,0L152.397,218.422  c-38.986,38.986-38.986,102.194,0,141.18l0,0c38.986,38.986,102.194,38.986,141.18,0L475.26,177.919  C514.245,138.934,514.245,75.725,475.26,36.74z" fill="#fb8d4b"/><path d="M272.364,338.389l181.683-181.683c35.381-35.381,38.65-90.71,9.813-129.78  c3.981,2.938,7.794,6.208,11.4,9.813l0,0c38.986,38.986,38.986,102.194,0,141.18L293.577,359.602  c-38.986,38.986-102.194,38.986-141.18,0l0,0c-3.605-3.605-6.875-7.418-9.813-11.4C181.654,377.039,236.983,373.769,272.364,338.389  z" fill="#e86d24"/><path d="M193.733,318.256c-3.163-3.163-5.234-7.443-5.547-12.257c-0.685-10.523,7.291-19.608,17.814-20.293  c12.753-0.83,22.996-11.072,23.825-23.825c2.069-31.827,27.63-57.387,59.457-59.456c12.752-0.83,22.995-11.072,23.824-23.826  c2.069-31.826,27.629-57.387,59.456-59.455c10.521-0.684,19.608,7.291,20.292,17.815c0.684,10.523-7.292,19.608-17.816,20.292  c-12.753,0.829-22.995,11.072-23.825,23.825c-2.069,31.827-27.629,57.387-59.455,59.456c-12.754,0.829-22.996,11.071-23.825,23.824  c-2.07,31.826-27.63,57.386-59.455,59.456C202.771,324.185,197.484,322.007,193.733,318.256z" fill="#fedd00"/><path d="M379.529,69.403c1.919,0,3.839-0.732,5.303-2.197l6.387-6.387c2.929-2.929,2.929-7.678,0-10.606  c-2.929-2.929-7.678-2.929-10.606,0l-6.387,6.387c-2.929,2.929-2.929,7.678,0,10.606C375.69,68.671,377.61,69.403,379.529,69.403z"/><path d="M455.417,137.791l6.387-6.387c2.929-2.929,2.929-7.678,0-10.606c-2.929-2.929-7.678-2.929-10.606,0l-6.387,6.387  c-2.929,2.929-2.929,7.678,0,10.606c1.464,1.464,3.384,2.197,5.303,2.197S453.952,139.255,455.417,137.791z"/><path d="M404.636,78.996c-4.146-0.279-7.708,2.848-7.986,6.98c-0.524,7.799,2.445,15.542,8.147,21.244  c5.27,5.271,12.285,8.207,19.477,8.207c0.588,0,1.177-0.02,1.767-0.059c4.133-0.278,7.258-3.853,6.98-7.986  c-0.277-4.133-3.862-7.258-7.985-6.98c-3.489,0.234-6.991-1.147-9.632-3.788s-4.021-6.151-3.788-9.631  C411.894,82.849,408.769,79.273,404.636,78.996z"/><path d="M305.64,178.113c-0.585,9.007-7.819,16.242-16.826,16.828c-35.573,2.312-64.142,30.88-66.455,66.454  c-0.585,9.007-7.819,16.241-16.827,16.827c-14.633,0.952-25.763,13.631-24.812,28.263c0.921,14.171,14.056,25.738,28.264,24.812  c35.57-2.314,64.138-30.883,66.453-66.454c0.585-9.007,7.819-16.241,16.828-16.826c35.571-2.313,64.139-30.882,66.452-66.454  c0.585-9.007,7.819-16.241,16.826-16.827c14.475-0.942,25.753-13.803,24.814-28.262c-0.94-14.479-13.799-25.756-28.262-24.813  C336.522,113.973,307.953,142.541,305.64,178.113z M373.068,126.629c6.257-0.404,11.913,4.552,12.32,10.817  c0.411,6.318-4.507,11.912-10.818,12.322c-16.499,1.073-29.75,14.323-30.822,30.822c-1.826,28.08-24.377,50.633-52.457,52.458  c-16.5,1.072-29.75,14.323-30.823,30.821c-1.827,28.079-24.379,50.632-52.457,52.459c-6.31,0.411-11.912-4.509-12.322-10.817  c-0.415-6.379,4.438-11.907,10.817-12.322c16.5-1.073,29.75-14.324,30.822-30.823c1.826-28.081,24.378-50.633,52.46-52.458  c16.498-1.073,29.749-14.325,30.821-30.823C322.434,151.006,344.987,128.454,373.068,126.629z"/><path d="M32.065,512c8.561,0,16.608-3.334,22.662-9.387l76.781-76.781c2.929-2.929,2.929-7.678,0-10.606  c-2.929-2.929-7.678-2.929-10.606,0l-76.781,76.781c-6.648,6.647-17.463,6.647-24.11,0s-6.647-17.463,0-24.11l116.003-116.003  c0.055,0.076,1.646,2.215,2.413,3.195c2.652,3.39,5.607,6.737,8.687,9.816c4.037,4.037,8.402,7.732,13.01,11.099l-18.008,18.008  c-2.929,2.929-2.929,7.678,0,10.606c2.929,2.929,7.678,2.929,10.606,0l20.508-20.509c15.535,8.119,32.655,12.18,49.776,12.18  c27.485,0,54.969-10.462,75.893-31.385l181.683-181.683c41.848-41.848,41.848-109.939,0-151.787C460.309,11.164,433.356,0,404.688,0  c-28.669,0-55.622,11.164-75.893,31.436l-22.628,22.628c-2.929,2.929-2.929,7.678,0,10.606c2.929,2.929,7.678,2.929,10.606,0  l22.628-22.628C356.84,24.604,380.026,15,404.688,15s47.848,9.604,65.287,27.043c17.438,17.438,27.042,40.625,27.042,65.287  s-9.604,47.848-27.042,65.287L288.292,354.299c-31.447,31.447-80.118,35.418-115.922,11.925c-0.126-0.083-0.252-0.167-0.377-0.25  c-11.512-7.615-21.272-17.873-28.341-29.725c-0.03-0.05-0.067-0.095-0.098-0.145c-8.393-14.104-12.878-30.252-12.878-47.093  c0-24.662,9.604-47.848,27.042-65.287L295.56,85.884c2.929-2.929,2.929-7.678,0-10.606c-2.929-2.929-7.678-2.929-10.606,0  L147.112,213.119c-33.958,33.958-40.358,85.195-19.206,125.669L9.404,457.291c-12.495,12.495-12.496,32.827,0,45.323  C15.457,508.667,23.505,512,32.065,512z"/></g><g transform="matrix(0.1367190182209015 0 0 0.1367190182209015 315 140)" id="L1_176"><path d="M403.582,80.426 376.539,64.267 349.497,80.426 338.965,124.15 376.539,155.993   414.114,124.15z" fill="#e6bb00"/><path d="M437.002,143.586c-1.842-11.209-11.53-19.435-22.89-19.435h-75.145  c-11.359,0-21.048,8.226-22.89,19.435l-4.17,25.376l64.632,18.873l64.632-18.873L437.002,143.586z" fill="#fedd00"/><path d="M496.7,369.991c-34.292-84.118-17.034-98.375-17.034-136.87s-38.495-64.157-38.495-64.157H311.906  c0,0-38.495,25.663-38.495,64.157c0,38.495,17.257,52.752-17.034,136.87c-8.376,20.547-9.347,44.414-6.031,68.75  c3.116,22.865,22.569,39.959,45.647,39.959h161.091c23.077,0,42.53-17.093,45.647-39.959  C506.048,414.403,505.077,390.538,496.7,369.991z" fill="#e6bb00"/><path d="M466.044,382.923c-0.05-0.125-0.1-0.25-0.151-0.374c-29-71.135-24.954-101.281-21.385-127.876  c1.014-7.554,1.889-14.079,1.889-21.552c0-3.005-0.593-5.993-1.6-8.896c-4.621-13.327-17.535-21.992-31.642-21.992H339.92  c-14.106,0-27.02,8.665-31.641,21.992c-1.007,2.903-1.6,5.891-1.6,8.896c0,7.473,0.875,13.997,1.889,21.552  c3.569,26.596,7.614,56.741-21.385,127.875c-0.051,0.125-0.101,0.25-0.152,0.375c-9.031,22.604,7.951,47.151,32.294,47.151H433.75  C458.093,430.075,475.077,405.527,466.044,382.923z" fill="#fedd00"/><path d="M140.57,404.006 75.933,421.116 75.933,451.96 140.57,465.329 205.206,451.96   205.206,421.116z" fill="#eeeced"/><path d="M205.206,451.96v5.703c0,11.615-9.42,21.035-21.035,21.035H96.969  c-11.615,0-21.035-9.42-21.035-21.035v-5.703H205.206z" fill="#d4d2d3"/><path d="M245.128,219.603c0,0,28.516-39.923,28.516-93.152c0-28.218-8.013-52.696-15.544-69.469  c-6.464-14.397-20.743-23.682-36.526-23.682H59.565c-15.782,0-30.062,9.285-36.526,23.682C15.508,73.755,7.495,98.232,7.495,126.451  c0,53.23,28.516,93.152,28.516,93.152c28.516,62.735-96.954,119.767,39.923,201.513h129.273  C342.083,339.37,216.612,282.338,245.128,219.603z" fill="#e64047"/><path d="M214.841,205.836l1.337-2.942l1.878-2.629c0.223-0.312,22.318-32.405,22.318-73.815  c0-0.087,0-0.175,0-0.262c-0.031-13.55-11.184-24.452-24.734-24.452H65.498c-13.55,0-24.703,10.901-24.734,24.452  c0,0.087,0,0.174,0,0.262c0,40.256,21.135,72.063,22.378,73.895l1.735,2.364l1.421,3.126c16.633,36.594,1.875,69.104-9.983,95.227  c-7.55,16.632-14.071,30.997-11.993,42.838c2.788,15.889,22.462,31.988,41.069,43.946h110.357  c18.607-11.958,38.281-28.058,41.069-43.946c2.078-11.841-4.443-26.206-11.993-42.838  C212.966,274.941,198.208,242.43,214.841,205.836z" fill="#f9545b"/><path d="M403.582,80.426h-54.085l5.142-21.32c1.559-6.454,7.328-10.997,13.963-10.997h15.864  c6.644,0,12.414,4.543,13.973,10.997L403.582,80.426z" fill="#fedd00"/><path d="M221.674,208.939c0.721-1.586,1.486-2.909,2.495-4.321c0.237-0.333,23.71-33.792,23.71-78.168v-0.279  c-0.041-17.609-14.501-31.936-32.235-31.936h-94.041c-4.142,0-7.5,3.358-7.5,7.5c0,4.142,3.358,7.5,7.5,7.5h94.041  c9.481,0,17.213,7.612,17.234,16.952v0.262c0,38.728-20.76,69.221-20.921,69.455c-1.578,2.209-2.823,4.367-3.94,6.827  c-18.043,39.696-1.846,75.376,9.983,101.435c7.034,15.497,13.109,28.881,11.433,38.437c-1.82,10.375-14.545,23.737-35.903,37.743  H87.617c-21.357-14.005-34.083-27.367-35.903-37.742c-1.677-9.558,4.399-22.943,11.435-38.442  c11.827-26.053,28.026-61.732,9.981-101.43c-1.107-2.436-2.267-4.547-3.848-6.703c-1.563-2.333-21.014-32.154-21.014-69.579v-0.245  c0.021-9.356,7.752-16.969,17.234-16.969h26.101c4.142,0,7.5-3.358,7.5-7.5c0-4.142-3.358-7.5-7.5-7.5H65.502  c-17.734,0-32.195,14.326-32.235,31.953v0.262c0,42.648,22.631,76.571,23.666,78.099c0.881,1.301,1.89,2.961,2.54,4.391  c15.224,33.494,1.831,62.994-9.984,89.023c-8.064,17.765-15.029,33.108-12.551,47.235c2.68,15.273,17.619,31.746,44.401,48.959  c1.21,0.778,2.617,1.191,4.055,1.191h110.359c1.438,0,2.845-0.413,4.055-1.191c26.783-17.213,41.721-33.686,44.401-48.959  c2.479-14.125-4.485-29.467-12.551-47.235C219.842,271.934,206.45,242.432,221.674,208.939z"/><path d="M92.414,295.695c-4.142,0-7.5,3.358-7.5,7.5v8.716c0,4.142,3.358,7.5,7.5,7.5c4.143,0,7.5-3.358,7.5-7.5v-8.716  C99.914,299.053,96.557,295.695,92.414,295.695z"/><path d="M196.235,311.911v-8.716c0-4.142-3.358-7.5-7.5-7.5s-7.5,3.358-7.5,7.5v8.716c0,4.142,3.358,7.5,7.5,7.5  S196.235,316.054,196.235,311.911z"/><path d="M140.575,325.854c7.856,0,15.237-3.29,20.251-9.025c2.726-3.119,2.408-7.856-0.71-10.583  c-3.119-2.727-7.857-2.408-10.583,0.71c-2.165,2.477-5.43,3.897-8.958,3.897c-3.528,0-6.792-1.42-8.958-3.897  c-2.727-3.119-7.465-3.437-10.583-0.71c-3.119,2.726-3.437,7.464-0.711,10.583C125.336,322.564,132.719,325.854,140.575,325.854z"/><path d="M472.843,379.718c-28.246-69.286-24.341-98.379-20.896-124.048c1.05-7.821,1.956-14.575,1.956-22.549  c0-3.681-0.677-7.5-2.013-11.353c-5.607-16.17-21.17-27.036-38.728-27.036h-73.235c-17.557,0-33.12,10.865-38.727,27.036  c-1.336,3.853-2.014,7.673-2.014,11.354c0,7.978,0.906,14.73,1.956,22.549c3.444,25.667,7.349,54.761-20.89,124.032l-0.177,0.439  c-5.125,12.825-3.535,27.347,4.252,38.844c7.884,11.641,20.97,18.59,35.006,18.59h66.265c4.142,0,7.5-3.358,7.5-7.5  c0-4.142-3.358-7.5-7.5-7.5h-66.265c-9.052,0-17.496-4.487-22.586-12.002c-5.067-7.481-6.066-16.544-2.745-24.858l0.136-0.334  c29.754-72.984,25.567-104.181,21.872-131.705c-0.978-7.286-1.822-13.578-1.822-20.554c0-2.004,0.399-4.17,1.186-6.439  c3.515-10.138,13.382-16.949,24.555-16.949h73.235c11.172,0,21.039,6.812,24.555,16.95c0.787,2.269,1.186,4.435,1.186,6.438  c0,6.972-0.844,13.266-1.823,20.555c-3.693,27.524-7.88,58.72,21.877,131.716l0.127,0.314c3.325,8.321,2.326,17.385-2.741,24.866  c-5.09,7.516-13.534,12.002-22.586,12.002h-18.16c-4.142,0-7.5,3.358-7.5,7.5c0,4.142,3.358,7.5,7.5,7.5h18.16  c14.035,0,27.122-6.95,35.007-18.591c7.787-11.497,9.376-26.019,4.25-38.847L472.843,379.718z"/><path d="M332.685,306.003v6.58c0,4.142,3.358,7.5,7.5,7.5s7.5-3.358,7.5-7.5v-6.58c0-4.142-3.358-7.5-7.5-7.5  S332.685,301.861,332.685,306.003z"/><path d="M420.402,312.583v-6.58c0-4.142-3.358-7.5-7.5-7.5c-4.142,0-7.5,3.358-7.5,7.5v6.58c0,4.142,3.358,7.5,7.5,7.5  C417.044,320.084,420.402,316.726,420.402,312.583z"/><path d="M392.505,306.921c-3.119-2.727-7.857-2.407-10.583,0.711c-1.285,1.471-3.246,2.314-5.378,2.314  c-2.132,0-4.093-0.843-5.378-2.314c-2.726-3.118-7.464-3.438-10.583-0.711c-3.119,2.726-3.437,7.464-0.711,10.583  c4.134,4.729,10.211,7.442,16.672,7.442s12.538-2.712,16.672-7.442C395.942,314.385,395.624,309.647,392.505,306.921z"/><path d="M484.919,260.094c1.107-8.248,2.251-16.777,2.251-26.974c0-36.174-29.728-61.387-39.097-68.434l-3.667-22.316  c-2.113-12.86-11.891-22.67-24.235-25.12l-14.436-59.904c-2.38-9.854-11.124-16.737-21.263-16.737h-15.864  c-10.134,0-18.873,6.882-21.254,16.739l-14.434,59.902c-12.346,2.449-22.125,12.26-24.238,25.12l-3.667,22.317  c-9.369,7.047-39.097,32.261-39.097,68.434c0,10.194,1.144,18.723,2.25,26.971c1.63,12.156,3.193,23.866,1.005,40.623  c-2.259-5.572-4.749-11.062-7.219-16.503c-10.071-22.186-18.783-41.378-10.258-60.905c3.905-5.695,29.455-44.953,29.455-96.855  c0-30.13-8.811-56.079-16.202-72.541C257.279,36.833,240.257,25.8,221.578,25.8H59.57c-18.677,0-35.701,11.034-43.368,28.111  C8.811,70.372,0,96.321,0,126.451c0,51.902,25.549,91.16,29.455,96.855c8.525,19.527-0.187,38.72-10.258,60.905  c-9.479,20.882-19.282,42.477-15.025,66.735c4.611,26.276,25.648,50.637,64.266,74.392v32.325c0,15.734,12.801,28.536,28.536,28.536  h87.202c15.734,0,28.536-12.801,28.536-28.536v-32.325c10.96-6.742,20.497-13.533,28.651-20.402  c-0.633,10.866-0.12,22.502,1.558,34.817c3.608,26.479,26.428,46.446,53.078,46.446h161.091c26.651,0,49.469-19.967,53.078-46.446  c3.836-28.152,1.644-52.576-6.517-72.593C478.749,306.076,481.746,283.741,484.919,260.094z M355.41,87.926h42.269l6.917,28.725  h-56.105L355.41,87.926z M361.934,60.867c0.748-3.096,3.492-5.258,6.673-5.258h15.864c3.187,0,5.934,2.162,6.681,5.256l2.909,12.061  h-35.037L361.934,60.867z M323.482,144.801c1.252-7.62,7.766-13.151,15.489-13.151h75.145c7.722,0,14.236,5.531,15.489,13.151  l2.738,16.66h-111.6L323.482,144.801z M197.71,444.46H83.439v-15.844h114.272v15.844H197.71z M184.176,471.199H96.974  c-6.854,0-12.535-5.121-13.416-11.738h114.034C196.71,466.077,191.03,471.199,184.176,471.199z M203.129,413.615H78.021  c-35.854-21.721-55.182-43.081-59.074-65.261c-3.455-19.69,4.979-38.272,13.909-57.942c10.707-23.585,21.778-47.975,9.988-73.912  c-0.198-0.435-0.442-0.858-0.719-1.248C41.854,214.87,15,176.49,15,126.451c0-27.475,8.095-51.272,14.886-66.397  C35.139,48.357,46.79,40.799,59.57,40.799h162.008c12.78,0,24.432,7.558,29.685,19.254c6.791,15.125,14.886,38.924,14.886,66.397  c0,50.03-26.844,88.405-27.125,88.801c-0.279,0.392-0.52,0.81-0.719,1.248c-11.79,25.938-0.719,50.327,9.988,73.912  c6.449,14.207,12.638,27.846,14.278,41.744c0.908,7.696,0.297,15.677-2.086,23.066C254.119,374.963,235.269,394.144,203.129,413.615  z M495.305,437.728c-2.6,19.081-19.029,33.471-38.215,33.471H295.998c-19.186,0-35.615-14.389-38.215-33.471  c-2.537-18.61-2.22-35.374,0.94-49.861c5.973-7.118,10.517-14.373,13.701-21.823c0.018-0.041,0.036-0.083,0.053-0.124  c4.496-10.552,6.269-22.155,5.19-33.642c10.437-36.352,7.859-55.578,5.364-74.18c-1.088-8.117-2.116-15.784-2.116-24.978  c0-29.5,26.331-51.321,33.418-56.658h124.417c7.102,5.35,33.419,27.168,33.419,56.658c0,9.194-1.029,16.861-2.118,24.979  c-3.294,24.552-6.701,49.94,19.707,114.722C496.916,390.376,498.782,412.213,495.305,437.728z"/></g><g transform="matrix(0.13206017156295854 -0.03538541632261026 0.03538541632261026 0.13206017156295854 132.1339295012944 150.25126265847084)" id="L1_177"><g><path d="M44.027,131.78 28.53,135.339 25.865,159.93 41.144,189.207 59.306,189.207 59.306,161.056z" fill="#a8503c"/><path d="M467.972,131.78 483.469,135.339 486.134,159.93 470.855,189.207 452.693,189.207    452.693,161.056z" fill="#a8503c"/></g><g><path d="M44.027,131.78l-18.162,28.15l-11.784-22.579c-2.359-4.543-0.602-10.134,3.931-12.503l9.387-4.902   c4.543-2.369,10.134-0.612,12.503,3.931L44.027,131.78z" fill="#eeeced"/><path d="M85.447,211.154 59.626,224.628 41.144,189.207 59.306,161.056z" fill="#eeeced"/><path d="M467.972,131.78l18.162,28.15l11.784-22.579c2.359-4.543,0.602-10.134-3.931-12.503l-9.387-4.902   c-4.543-2.369-10.134-0.612-12.503,3.931L467.972,131.78z" fill="#eeeced"/><path d="M426.552,211.154 452.373,224.628 470.855,189.207 452.693,161.056z" fill="#eeeced"/></g><path d="M210.212,210.213c7.523,11.241,11.813,24.229,11.813,38.052c0,42.886-41.284,77.656-92.217,77.656  s-92.217-34.771-92.217-77.656c0-13.823,4.29-26.811,11.813-38.052l79.918-23.103L210.212,210.213z" fill="#a8503c"/><path d="M49.405,210.213c4.65-1.514,9.998-0.349,13.59,3.514c2.572,2.776,6.057,4.164,9.542,4.164  s6.97-1.388,9.542-4.164c2.582-2.776,6.067-4.155,9.552-4.155s6.96,1.378,9.542,4.155c2.582,2.776,6.057,4.164,9.552,4.164  c3.475,0,6.97-1.388,9.542-4.164s6.057-4.155,9.542-4.155s6.97,1.378,9.542,4.155c2.572,2.776,6.067,4.164,9.542,4.164  c3.495,0,6.97-1.388,9.552-4.164s6.057-4.155,9.552-4.155c3.475,0,6.97,1.378,9.542,4.155c2.572,2.776,6.057,4.164,9.542,4.164  s6.97-1.388,9.542-4.164c2.582-2.776,6.067-4.155,9.552-4.155c1.369,0,2.728,0.214,4.038,0.641  c-15.813-23.637-45.895-39.605-80.403-39.605S65.218,186.576,49.405,210.213z" fill="#993e29"/><path d="M301.788,210.213c-7.523,11.241-11.813,24.229-11.813,38.052c0,42.886,41.284,77.656,92.217,77.656  s92.217-34.771,92.217-77.656c0-13.823-4.29-26.811-11.813-38.052l-79.918-23.103L301.788,210.213z" fill="#eb98a3"/><path d="M462.594,210.213c-4.65-1.514-9.998-0.349-13.59,3.514c-2.572,2.776-6.057,4.164-9.542,4.164  s-6.97-1.388-9.542-4.164c-2.582-2.776-6.067-4.155-9.552-4.155c-3.485,0-6.96,1.378-9.542,4.155  c-2.582,2.776-6.057,4.164-9.552,4.164c-3.475,0-6.97-1.388-9.542-4.164s-6.057-4.155-9.542-4.155s-6.97,1.378-9.542,4.155  c-2.572,2.776-6.067,4.164-9.542,4.164c-3.495,0-6.97-1.388-9.552-4.164s-6.057-4.155-9.552-4.155c-3.475,0-6.97,1.378-9.542,4.155  c-2.572,2.776-6.057,4.164-9.542,4.164s-6.97-1.388-9.542-4.164c-2.582-2.776-6.067-4.155-9.552-4.155  c-1.369,0-2.728,0.214-4.038,0.641c15.813-23.637,45.895-39.605,80.403-39.605S446.782,186.576,462.594,210.213z" fill="#993e29"/><path d="M88.577,231.49c-10.296-7.777-22.547-11.888-35.427-11.888c-3.191,0-6.333,0.269-9.414,0.757  c-3.963,8.662-6.145,18.07-6.145,27.905c0,42.886,41.284,77.656,92.217,77.656c43.678,0,80.258-25.572,89.793-59.903  C131.755,260.651,95.554,236.759,88.577,231.49z" fill="#994937"/><path d="M423.42,231.491c-6.976,5.269-43.177,29.16-131.022,34.526c9.535,34.331,46.115,59.903,89.793,59.903  c50.933,0,92.217-34.771,92.217-77.656c0-9.834-2.182-19.242-6.144-27.902c-3.081-0.489-6.224-0.758-9.416-0.758  C445.967,219.604,433.717,223.714,423.42,231.491z" fill="#fa7578"/><path d="M175.596,249.041c-7.523,11.241-11.813,24.229-11.813,38.052c0,42.886,41.284,77.656,92.217,77.656  s92.217-34.771,92.217-77.656c0-13.823-4.29-26.811-11.813-38.052l-79.918-23.103L175.596,249.041z" fill="#fee333"/><path d="M336.403,249.041c-4.65-1.514-9.998-0.349-13.59,3.514c-2.572,2.776-6.057,4.164-9.542,4.164  s-6.97-1.388-9.542-4.164c-2.582-2.776-6.067-4.155-9.552-4.155c-3.485,0-6.96,1.378-9.542,4.155  c-2.582,2.776-6.057,4.164-9.552,4.164c-3.475,0-6.97-1.388-9.542-4.164s-6.057-4.155-9.542-4.155s-6.97,1.378-9.542,4.155  c-2.572,2.776-6.067,4.164-9.542,4.164c-3.495,0-6.97-1.388-9.552-4.164s-6.057-4.155-9.552-4.155c-3.475,0-6.97,1.378-9.542,4.155  c-2.572,2.776-6.057,4.164-9.542,4.164s-6.97-1.388-9.542-4.164c-2.582-2.776-6.067-4.155-9.552-4.155  c-1.369,0-2.728,0.214-4.038,0.641c15.813-23.637,45.895-39.605,80.403-39.605S320.59,225.404,336.403,249.041z" fill="#993e29"/><circle cx="256" cy="198" r="20" fill="#f9545b"/><path d="M266,209.143c-11.258,0-20.385-9.126-20.385-20.385c0-3.041,0.684-5.915,1.878-8.507  c-7.005,3.226-11.878,10.289-11.878,18.507c0,11.258,9.127,20.385,20.385,20.385c8.218,0,15.281-4.873,18.507-11.877  C271.915,208.459,269.04,209.143,266,209.143z" fill="#e64047"/><path d="M169.432,260.278c-3.652,8.358-5.65,17.391-5.65,26.814c0,42.886,41.284,77.656,92.217,77.656  s92.217-34.771,92.217-77.656c0-9.423-1.997-18.456-5.65-26.814c-22.965,4.03-51.505,6.814-86.567,6.814  S192.398,264.309,169.432,260.278z" fill="#f2d831"/><circle cx="382" cy="159" r="20" fill="#f9545b"/><path d="M392.191,170.315c-11.258,0-20.385-9.126-20.385-20.385c0-3.041,0.684-5.915,1.878-8.507  c-7.005,3.226-11.878,10.289-11.878,18.507c0,11.258,9.127,20.385,20.385,20.385c8.218,0,15.281-4.873,18.507-11.877  C398.106,169.631,395.232,170.315,392.191,170.315z" fill="#e64047"/><circle cx="129" cy="159" r="20" fill="#f9545b"/><path d="M139.808,170.315c-11.258,0-20.385-9.126-20.385-20.385c0-3.041,0.684-5.915,1.878-8.507  c-7.005,3.226-11.878,10.289-11.878,18.507c0,11.258,9.127,20.385,20.385,20.385c8.218,0,15.281-4.873,18.507-11.877  C145.724,169.631,142.849,170.315,139.808,170.315z" fill="#e64047"/><path d="M256,364.749c-133.143,0-198.921-34.668-226.28-55.333c-17.112-12.924-20.506-37.273-7.581-54.385  c12.924-17.112,37.273-20.506,54.385-7.581c12.312,9.3,61.642,39.643,179.476,39.643c117.833,0,167.163-30.343,179.475-39.642  c17.111-12.923,41.462-9.53,54.385,7.581c12.925,17.111,9.531,41.461-7.581,54.385C454.92,330.082,389.142,364.749,256,364.749z" fill="#e6bb00"/><path d="M7.5,324.466L7.5,324.466c0,40.206,32.593,72.799,72.799,72.799h351.402  c40.206,0,72.799-32.593,72.799-72.799l0,0H7.5z" fill="#55c2e3"/><path d="M57.5,324.466L57.5,324.466h-50l0,0c0,40.206,32.593,72.799,72.799,72.799h50  C90.093,397.265,57.5,364.672,57.5,324.466z" fill="#45b6d9"/><path d="M512,324.466c0-4.094-3.413-7.5-7.5-7.5h-19.82c0.713-0.52,1.425-1.041,2.119-1.565  c9.875-7.458,16.253-18.315,17.962-30.571c2.62-18.792-6.97-37.917-23.607-47.03c-1.52-10.688-5.339-20.855-11.383-30.303  l34.804-66.689c4.254-8.193,1.063-18.334-7.116-22.607l-9.391-4.904c-3.973-2.071-8.513-2.473-12.783-1.13  c-4.272,1.343-7.765,4.271-9.835,8.241l-29.321,56.184c-8.225-4.511-17.24-7.988-26.797-10.281c0.482-2.05,0.745-4.184,0.745-6.379  c0-12.984-8.921-23.923-20.955-27.013c1.937-8.916,7.627-12.393,7.92-12.565l-0.108,0.061l-7.156-13.183  c-0.611,0.332-13.617,7.616-15.944,26.097c-11.305,3.56-19.526,14.139-19.526,26.604c0,2.195,0.263,4.329,0.745,6.379  c-25.058,6.013-46.405,20.164-59.498,39.734c-0.506,0.756-0.998,1.529-1.482,2.31c-3.551-1.247-7.201-2.32-10.932-3.216  c0.482-2.05,0.745-4.184,0.745-6.379c0-12.984-8.92-23.923-20.955-27.013c1.937-8.916,7.627-12.393,7.919-12.565l-0.108,0.061  l-7.156-13.183c-0.61,0.332-13.616,7.616-15.943,26.097c-11.305,3.56-19.526,14.139-19.526,26.604c0,2.195,0.263,4.329,0.745,6.379  c-3.731,0.895-7.38,1.969-10.932,3.216c-0.485-0.782-0.978-1.557-1.485-2.314c-13.091-19.567-34.438-33.717-59.495-39.73  c0.482-2.05,0.745-4.184,0.745-6.379c0-12.465-8.222-23.044-19.526-26.604c-2.327-18.48-15.333-25.765-15.944-26.097l-7.156,13.183  l-0.108-0.061c0.293,0.172,5.983,3.649,7.92,12.565c-12.034,3.089-20.955,14.028-20.955,27.013c0,2.195,0.263,4.329,0.745,6.379  c-9.557,2.293-18.572,5.77-26.797,10.281l-29.319-56.18c-4.274-8.197-14.422-11.389-22.625-7.112l-9.388,4.903  c-8.177,4.272-11.369,14.413-7.107,22.62l34.796,66.675c-6.043,9.446-9.862,19.613-11.382,30.301  c-5.672,3.106-10.678,7.397-14.692,12.713c-7.459,9.874-10.625,22.063-8.917,34.318c1.708,12.256,8.088,23.113,17.962,30.572  c0.695,0.525,1.408,1.045,2.121,1.566H7.5c-4.142,0-7.5,3.358-7.5,7.5c0,44.277,36.022,80.299,80.299,80.299h351.402  C475.978,404.766,512,368.743,512,324.466z M267.139,279.498c-26.876,0.489-53.842-0.607-80.52-3.98  c-1.031-0.13-13.75-1.564-13.75-1.967c0.008-0.034,0.077-0.314,0.103-0.42c1.399-5.73,3.665-11.234,6.629-16.331  c0.172-0.296,0.326-0.608,0.543-0.875c1.339,0.121,2.626,0.741,3.542,1.727c8.003,8.613,22.074,8.651,30.086,0  c2.128-2.298,5.983-2.266,8.101,0.01c8.007,8.606,22.104,8.609,30.086-0.01c2.116-2.285,5.972-2.279,8.082,0  c8.001,8.642,22.081,8.617,30.087,0.01c2.155-2.316,5.943-2.33,8.101-0.01c8.007,8.61,22.072,8.648,30.078,0.009  c0.884-0.954,2.223-1.606,3.532-1.73c0.014-0.001,0.029,0,0.043-0.002c0.174,0.288,1.468,2.544,1.912,3.392  c2.28,4.355,4.073,9.032,5.236,13.81c0.026,0.105,0.095,0.387,0.103,0.423c-21.815,3.491-45.821,5.48-71.594,5.935  C267.404,279.493,267.273,279.496,267.139,279.498z M217.521,224.601c0.075-0.032,0.145-0.072,0.219-0.106  c5.95-2.493,12.277-4.424,18.891-5.704c4.409,4.265,10.213,7.094,16.656,7.719c8.064,0.782,16.258-2.085,22.083-7.719  c6.585,1.275,12.886,3.195,18.814,5.673c0.099,0.047,0.193,0.1,0.294,0.143c9.362,3.968,17.657,9.275,24.573,15.662  c0.27,0.249,3.183,3.309,3.295,3.247c-1.863,1.039-3.584,2.378-5.033,3.943c-2.156,2.327-5.94,2.312-8.09-0.009  c-6.912-7.462-18.603-8.631-26.896-2.779c-2.357,1.663-4.063,4.55-7.242,4.55c-0.899,0-2.62-0.229-4.04-1.761  c-7.999-8.631-22.087-8.635-30.087-0.001c-1.421,1.533-3.142,1.762-4.041,1.762c-1.555,0-2.996-0.629-4.058-1.771  c-8.019-8.618-22.091-8.622-30.088,0.009c-1.053,1.136-2.488,1.762-4.041,1.762s-2.988-0.625-4.05-1.772  c-1.39-1.492-3.025-2.778-4.792-3.793c-0.069-0.04-0.222-0.136-0.232-0.141c0.241-0.251,2.443-2.458,3.332-3.279  C199.896,233.86,208.177,228.563,217.521,224.601z M331.178,224.408c3.332-1.068,6.37-2.977,8.785-5.583  c2.149-2.32,5.958-2.293,8.101,0.01c8.013,8.611,22.089,8.622,30.087-0.01c2.118-2.286,5.97-2.278,8.082,0  c8.008,8.638,22.071,8.627,30.087,0.01c2.155-2.317,5.945-2.328,8.101-0.01c8.009,8.608,22.069,8.652,30.078,0.009  c0.901-0.97,2.217-1.606,3.532-1.73c0.019-0.002,0.039-0.001,0.058-0.002c2.967,4.924,5.195,10.068,6.669,15.39  c-12.083-1.55-24.068,1.621-33.803,8.975c-0.007,0.006-0.016,0.012-0.023,0.017c-2.698,2.152-5.72,3.962-8.687,5.712  c-0.034,0.02-0.069,0.04-0.103,0.06c-11.839,6.904-33.293,16.619-68.224,23.637c-0.025-0.11-0.057-0.219-0.082-0.329  c-2.599-11.354-8.058-22.158-15.27-31.263c-4.059-5.124-8.712-9.785-13.78-13.911C325.528,225.39,329.816,224.844,331.178,224.408z   M468.658,146.677l8.808,13.652l-7.296,13.981l-8.808-13.653L468.658,146.677z M478.749,127.345c0.447-0.857,1.527-1.195,2.38-0.75  l9.385,4.901c0.865,0.452,1.2,1.528,0.755,2.385l-5.821,11.152l-8.808-13.652L478.749,127.345z M453.38,175.954l8.808,13.652  l-2.576,4.937c-3.326-3.502-6.958-6.752-10.852-9.735L453.38,175.954z M382.192,147.046c7.105,0,12.885,5.78,12.885,12.885  c0,6.899-5.932,12.877-12.902,12.884c-6.925-0.007-12.867-5.955-12.867-12.884C369.307,152.826,375.087,147.046,382.192,147.046z   M362.822,179.962c4.41,4.266,10.215,7.095,16.659,7.72c0.049,0.005,0.098,0.006,0.147,0.011c1.707,0.17,3.434,0.158,5.141-0.001  c0.044-0.004,0.088-0.005,0.132-0.01c6.444-0.625,12.25-3.454,16.66-7.72c11.857,2.296,23.302,6.778,33.379,13.451  c5.062,3.345,9.607,7.119,13.594,11.275c-0.079,0.043-0.153,0.095-0.231,0.14c-1.751,1.007-3.408,2.303-4.8,3.801  c-2.157,2.322-5.938,2.313-8.091-0.01c-7.984-8.617-22.083-8.597-30.077,0c-2.162,2.325-5.943,2.338-8.1,0.011  c-7.977-8.604-22.126-8.593-30.088-0.001c-2.131,2.299-5.983,2.266-8.1-0.01c-8.009-8.611-22.089-8.623-30.087,0.01  c-2.157,2.328-5.936,2.306-8.091-0.01c-1.443-1.551-3.151-2.88-4.996-3.917c-0.016-0.009-0.03-0.019-0.045-0.027  C327.659,192.299,344.128,183.581,362.822,179.962z M256,185.874c7.105,0,12.885,5.78,12.885,12.885  c0,6.909-5.847,12.883-12.855,12.883c-0.01,0-0.02,0.002-0.029,0.002c-0.011,0-0.021-0.002-0.032-0.002  c-6.96-0.002-12.853-5.945-12.853-12.883C243.115,191.654,248.896,185.874,256,185.874z M196.171,204.675  c-0.016,0.009-0.031,0.02-0.046,0.028c-1.853,1.042-3.557,2.369-5.004,3.926c-2.144,2.307-5.941,2.311-8.081,0.001  c-7.985-8.617-22.093-8.608-30.087-0.011c-2.149,2.311-5.96,2.321-8.1,0.011c-7.988-8.619-22.103-8.618-30.087,0  c-2.154,2.323-5.954,2.297-8.1-0.011c-7.99-8.593-22.102-8.576-30.087,0.01c-2.158,2.321-5.936,2.312-8.09-0.008  c-0.011-0.013-0.024-0.023-0.036-0.036c-1.461-1.521-3.138-2.884-4.991-3.901c3.988-4.157,8.533-7.932,13.596-11.279  c0.143-0.094,0.275-0.197,0.409-0.298c9.611-6.27,20.816-10.792,32.973-13.145c4.41,4.266,10.215,7.095,16.659,7.72  c0.049,0.005,0.098,0.006,0.147,0.011c8.013,0.801,16.164-2.15,21.934-7.731C167.872,183.581,184.342,192.3,196.171,204.675z   M34.534,160.33l8.808-13.652l7.296,13.98l-8.809,13.653L34.534,160.33z M129.809,147.046c7.105,0,12.885,5.78,12.885,12.885  c0,6.947-5.876,12.891-12.902,12.884c-6.925-0.007-12.868-5.958-12.868-12.884C116.924,152.826,122.704,147.046,129.809,147.046z   M52.389,194.543l-2.576-4.937l8.808-13.652l4.62,8.854C59.347,187.79,55.715,191.041,52.389,194.543z M21.484,131.497l9.383-4.899  c0.261-0.136,0.54-0.2,0.815-0.2c0.638,0,1.256,0.346,1.572,0.952l2.105,4.032l-8.808,13.652l-5.813-11.139  C20.285,133.025,20.621,131.948,21.484,131.497z M22.094,282.758c-1.155-8.288,0.986-16.53,6.03-23.207  c9.33-12.353,26.888-15.996,40.384-8.404c0.011,0.006,0.023,0.013,0.034,0.02c1.835,1.037,3.695,2.478,5.491,3.75  c4.931,3.49,12.764,8.276,24.302,13.375c2.93,1.295,6.607,0.419,8.716-1.969c2.676-2.943,2.595-7.5-0.248-10.343  c-1.089-1.089-3.941-2.1-3.994-2.124c-7.607-3.451-15.035-7.417-21.765-12.391c-9.735-7.354-21.719-10.525-33.801-8.976  c1.475-5.321,3.703-10.465,6.668-15.388c0.022,0.002,0.045,0,0.068,0.003c1.254,0.136,2.651,0.792,3.515,1.721  c8.008,8.61,22.074,8.646,30.077,0.01c2.158-2.329,5.952-2.32,8.111,0c8.013,8.612,22.091,8.619,30.086-0.01  c2.148-2.316,5.941-2.31,8.082,0.001c8,8.635,22.083,8.614,30.087,0.01c2.155-2.316,5.95-2.331,8.101-0.01  c3.831,4.135,9.403,6.566,15.043,6.566c0.023,0,0.047-0.003,0.07-0.003c0.021,0,0.042,0.003,0.063,0.003  c-14.132,11.506-24.958,27.289-29.049,45.174c-0.024,0.106-0.055,0.211-0.079,0.317c-0.355-0.071-0.711-0.143-1.064-0.215  c-7.491-1.532-14.934-3.304-22.295-5.371c-3.888-1.097-8.159,1.305-9.254,5.189c-1.123,3.987,1.2,8.129,5.187,9.252  c1.876,0.525,3.758,1.029,5.643,1.52c38.932,10.156,79.567,13.335,119.699,13.335c31.149,0,62.452-2.005,93.138-7.523  c51.089-9.186,77.958-24.499,88.717-32.077c10.082-7.101,21.462-10.437,33.371-5.346c0.04,0.017,0.083,0.027,0.124,0.043  c12.851,5.198,20.441,19.543,18.556,33.068c-1.155,8.288-5.469,15.629-12.146,20.673c-6.231,4.706-13.333,9.254-21.134,13.534  H55.375c-7.8-4.28-14.903-8.828-21.135-13.535C27.563,298.388,23.249,291.046,22.094,282.758z M431.701,389.766H80.299  c-33.47,0-61.14-25.313-64.872-57.799h481.144C492.84,364.453,465.171,389.766,431.701,389.766z"/></g><g transform="matrix(0.09421723826881062 -0.06630102041622274 0.06630102041622274 0.09421723826881062 51.90732577663146 261.8534482297375)" id="L1_178"><path d="M226.602,355.605v119.498c0,16.236,13.162,29.397,29.397,29.397s29.397-13.162,29.397-29.397V355.605  H226.602z" fill="#fdc464"/><path d="M250.602,475.103V355.605h-24v119.498c0,16.236,13.162,29.397,29.397,29.397  c4.276,0,8.335-0.921,12-2.562C257.748,497.346,250.602,487.062,250.602,475.103z" fill="#e6b25b"/><path d="M256,7.5L256,7.5c-66.988,0-121.292,54.304-121.292,121.292v213.023  c0,28.286,22.93,51.216,51.216,51.216h140.151c28.286,0,51.216-22.93,51.216-51.216V128.792C377.291,61.804,322.987,7.5,256,7.5z" fill="#9577e1"/><g><path d="M157.708,341.815V128.792c0-63.108,48.199-114.952,109.792-120.745   C263.714,7.69,259.879,7.5,256,7.5l0,0c-66.987,0-121.292,54.304-121.292,121.292v213.023c0,28.286,22.93,51.216,51.216,51.216h23   C180.638,393.031,157.708,370.101,157.708,341.815z" fill="#8162d1"/><path d="M203.629,107.433L203.629,107.433c-12.688,0-22.974,10.286-22.974,22.974v188.435   c0,12.688,10.286,22.974,22.973,22.974l0,0c12.688,0,22.974-10.286,22.974-22.974V130.406   C226.602,117.719,216.317,107.433,203.629,107.433z" fill="#8162d1"/><path d="M308.371,107.433L308.371,107.433c12.688,0,22.974,10.286,22.974,22.974v188.435   c0,12.688-10.286,22.974-22.973,22.974l0,0c-12.688,0-22.974-10.286-22.974-22.974V130.406   C285.397,117.719,295.684,107.433,308.371,107.433z" fill="#8162d1"/></g><path d="M173.155,130.406v188.435c0,16.803,13.67,30.473,30.474,30.473s30.474-13.67,30.474-30.473V130.406  c0-16.803-13.67-30.474-30.474-30.474S173.155,113.603,173.155,130.406z M219.103,130.406v188.435  c0,8.532-6.941,15.473-15.474,15.473s-15.474-6.941-15.474-15.473V130.406c0-8.532,6.941-15.474,15.474-15.474  S219.103,121.874,219.103,130.406z"/><path d="M277.897,130.406v188.435c0,16.803,13.67,30.473,30.474,30.473c16.803,0,30.473-13.67,30.473-30.473V130.406  c0-16.803-13.67-30.474-30.474-30.474C291.568,99.933,277.897,113.603,277.897,130.406z M292.897,130.406  c0-8.532,6.941-15.474,15.473-15.474l0,0c8.532,0,15.473,6.941,15.473,15.474v188.435c0,8.532-6.941,15.473-15.474,15.473  c-8.532,0-15.473-6.941-15.473-15.473V130.406H292.897z"/><path d="M221.608,64.697v-7.582c0-4.142-3.358-7.5-7.5-7.5s-7.5,3.358-7.5,7.5v7.582c0,4.142,3.358,7.5,7.5,7.5  S221.608,68.839,221.608,64.697z"/><path d="M305.391,64.697v-7.582c0-4.142-3.358-7.5-7.5-7.5s-7.5,3.358-7.5,7.5v7.582c0,4.142,3.358,7.5,7.5,7.5  S305.391,68.839,305.391,64.697z"/><path d="M256,77.8c7.115,0,13.804-2.983,18.35-8.184c2.726-3.119,2.408-7.857-0.711-10.583s-7.856-2.408-10.583,0.711  c-1.698,1.942-4.27,3.056-7.056,3.056c-2.787,0-5.359-1.114-7.057-3.056c-2.727-3.119-7.464-3.437-10.583-0.711  s-3.437,7.464-0.711,10.583C242.196,74.817,248.884,77.8,256,77.8z"/><path d="M256,0c-36.422,0-71.306,15.532-95.706,42.613c-2.773,3.078-2.526,7.82,0.551,10.592c3.078,2.773,7.82,2.525,10.592-0.551  C192.998,28.725,223.82,15,256,15c62.745,0,113.792,51.047,113.792,113.792v213.023c0,24.105-19.611,43.716-43.716,43.716H185.924  c-24.105,0-43.716-19.611-43.716-43.716V128.792c0-18.579,4.34-36.296,12.899-52.66c1.919-3.67,0.5-8.202-3.17-10.122  c-3.671-1.921-8.202-0.5-10.122,3.17c-9.556,18.269-14.607,38.883-14.607,59.612v213.023c0,32.376,26.34,58.716,58.716,58.716  h33.178v74.572C219.103,495.448,235.655,512,256,512s36.897-16.552,36.897-36.897v-74.572h33.178  c32.376,0,58.716-26.34,58.716-58.716V128.792C384.792,57.775,327.016,0,256,0z M277.897,475.103  c0,12.074-9.823,21.897-21.897,21.897s-21.897-9.823-21.897-21.897v-74.572h43.795v74.572H277.897z"/></g></defs><g fi:class="KUsePattern"><pattern id="pattern_L1_169" width="350" height="350" patternUnits="userSpaceOnUse"><use xlink:href="#L1_169" x="-350" y="-350"/><use xlink:href="#L1_169" x="0" y="-350"/><use xlink:href="#L1_169" x="350" y="-350"/><use xlink:href="#L1_169" x="-350" y="0"/><use xlink:href="#L1_169" x="0" y="0"/><use xlink:href="#L1_169" x="350" y="0"/><use xlink:href="#L1_169" x="-350" y="350"/><use xlink:href="#L1_169" x="0" y="350"/><use xlink:href="#L1_169" x="350" y="350"/></pattern><rect x="0" y="0" width="100%" height="100%" fill="url(#pattern_L1_169)"/></g><g fi:class="KUsePattern"><pattern id="pattern_L1_170" width="350" height="350" patternUnits="userSpaceOnUse"><use xlink:href="#L1_170" x="-350" y="-350"/><use xlink:href="#L1_170" x="0" y="-350"/><use xlink:href="#L1_170" x="350" y="-350"/><use xlink:href="#L1_170" x="-350" y="0"/><use xlink:href="#L1_170" x="0" y="0"/><use xlink:href="#L1_170" x="350" y="0"/><use xlink:href="#L1_170" x="-350" y="350"/><use xlink:href="#L1_170" x="0" y="350"/><use xlink:href="#L1_170" x="350" y="350"/></pattern><rect x="0" y="0" width="100%" height="100%" fill="url(#pattern_L1_170)"/></g><g fi:class="KUsePattern"><pattern id="pattern_L1_172" width="350" height="350" patternUnits="userSpaceOnUse"><use xlink:href="#L1_172" x="-350" y="-350"/><use xlink:href="#L1_172" x="0" y="-350"/><use xlink:href="#L1_172" x="350" y="-350"/><use xlink:href="#L1_172" x="-350" y="0"/><use xlink:href="#L1_172" x="0" y="0"/><use xlink:href="#L1_172" x="350" y="0"/><use xlink:href="#L1_172" x="-350" y="350"/><use xlink:href="#L1_172" x="0" y="350"/><use xlink:href="#L1_172" x="350" y="350"/></pattern><rect x="0" y="0" width="100%" height="100%" fill="url(#pattern_L1_172)"/></g><g fi:class="KUsePattern"><pattern id="pattern_L1_173" width="350" height="350" patternUnits="userSpaceOnUse"><use xlink:href="#L1_173" x="-350" y="-350"/><use xlink:href="#L1_173" x="0" y="-350"/><use xlink:href="#L1_173" x="350" y="-350"/><use xlink:href="#L1_173" x="-350" y="0"/><use xlink:href="#L1_173" x="0" y="0"/><use xlink:href="#L1_173" x="350" y="0"/><use xlink:href="#L1_173" x="-350" y="350"/><use xlink:href="#L1_173" x="0" y="350"/><use xlink:href="#L1_173" x="350" y="350"/></pattern><rect x="0" y="0" width="100%" height="100%" fill="url(#pattern_L1_173)"/></g><g fi:class="KUsePattern"><pattern id="pattern_L1_174" width="350" height="350" patternUnits="userSpaceOnUse"><use xlink:href="#L1_174" x="-350" y="-350"/><use xlink:href="#L1_174" x="0" y="-350"/><use xlink:href="#L1_174" x="350" y="-350"/><use xlink:href="#L1_174" x="-350" y="0"/><use xlink:href="#L1_174" x="0" y="0"/><use xlink:href="#L1_174" x="350" y="0"/><use xlink:href="#L1_174" x="-350" y="350"/><use xlink:href="#L1_174" x="0" y="350"/><use xlink:href="#L1_174" x="350" y="350"/></pattern><rect x="0" y="0" width="100%" height="100%" fill="url(#pattern_L1_174)"/></g><g fi:class="KUsePattern"><pattern id="pattern_L1_175" width="350" height="350" patternUnits="userSpaceOnUse"><use xlink:href="#L1_175" x="-350" y="-350"/><use xlink:href="#L1_175" x="0" y="-350"/><use xlink:href="#L1_175" x="350" y="-350"/><use xlink:href="#L1_175" x="-350" y="0"/><use xlink:href="#L1_175" x="0" y="0"/><use xlink:href="#L1_175" x="350" y="0"/><use xlink:href="#L1_175" x="-350" y="350"/><use xlink:href="#L1_175" x="0" y="350"/><use xlink:href="#L1_175" x="350" y="350"/></pattern><rect x="0" y="0" width="100%" height="100%" fill="url(#pattern_L1_175)"/></g><g fi:class="KUsePattern"><pattern id="pattern_L1_176" width="350" height="350" patternUnits="userSpaceOnUse"><use xlink:href="#L1_176" x="-350" y="-350"/><use xlink:href="#L1_176" x="0" y="-350"/><use xlink:href="#L1_176" x="350" y="-350"/><use xlink:href="#L1_176" x="-350" y="0"/><use xlink:href="#L1_176" x="0" y="0"/><use xlink:href="#L1_176" x="350" y="0"/><use xlink:href="#L1_176" x="-350" y="350"/><use xlink:href="#L1_176" x="0" y="350"/><use xlink:href="#L1_176" x="350" y="350"/></pattern><rect x="0" y="0" width="100%" height="100%" fill="url(#pattern_L1_176)"/></g><g fi:class="KUsePattern"><pattern id="pattern_L1_177" width="350" height="350" patternUnits="userSpaceOnUse"><use xlink:href="#L1_177" x="-350" y="-350"/><use xlink:href="#L1_177" x="0" y="-350"/><use xlink:href="#L1_177" x="350" y="-350"/><use xlink:href="#L1_177" x="-350" y="0"/><use xlink:href="#L1_177" x="0" y="0"/><use xlink:href="#L1_177" x="350" y="0"/><use xlink:href="#L1_177" x="-350" y="350"/><use xlink:href="#L1_177" x="0" y="350"/><use xlink:href="#L1_177" x="350" y="350"/></pattern><rect x="0" y="0" width="100%" height="100%" fill="url(#pattern_L1_177)"/></g><g fi:class="KUsePattern"><pattern id="pattern_L1_178" width="350" height="350" patternUnits="userSpaceOnUse"><use xlink:href="#L1_178" x="-350" y="-350"/><use xlink:href="#L1_178" x="0" y="-350"/><use xlink:href="#L1_178" x="350" y="-350"/><use xlink:href="#L1_178" x="-350" y="0"/><use xlink:href="#L1_178" x="0" y="0"/><use xlink:href="#L1_178" x="350" y="0"/><use xlink:href="#L1_178" x="-350" y="350"/><use xlink:href="#L1_178" x="0" y="350"/><use xlink:href="#L1_178" x="350" y="350"/></pattern><rect x="0" y="0" width="100%" height="100%" fill="url(#pattern_L1_178)"/></g></svg>