<svg id="Capa_1" enable-background="new 0 0 512 512" height="512" viewBox="0 0 512 512" width="512" xmlns="http://www.w3.org/2000/svg"><g><g><path d="m485.82 124.074v267.278h-459.64v-266.754" fill="#f7f2ed"/></g><g><path d="m496.668 116.637 7.832-22.287c0-3.314-2.686-6-6-6h-485c-3.314 0-6 2.686-6 6l7.832 22.287c.844 2.403 3.114 4.011 5.661 4.011h470.014c2.547 0 4.816-1.608 5.661-4.011z" fill="#ca7b44"/></g><g><path d="m15.332 395.363-7.832 22.287c0 3.314 2.687 6 6 6h485c3.314 0 6-2.686 6-6l-7.832-22.287c-.844-2.403-3.114-4.011-5.661-4.011h-470.014c-2.547 0-4.817 1.608-5.661 4.011z" fill="#f7f2ed"/></g><g><path d="m159.927 204.702h-92.179c-3.314 0-6-2.686-6-6v-38.749c0-3.314 2.686-6 6-6h92.179c3.314 0 6 2.686 6 6v38.749c0 3.313-2.686 6-6 6z" fill="#cdc3be"/></g><g><path d="m159.927 358.048h-92.179c-3.314 0-6-2.686-6-6v-107.496c0-3.314 2.686-6 6-6h92.179c3.314 0 6 2.686 6 6v107.496c0 3.313-2.686 6-6 6z" fill="#cdc3be"/></g><g><path d="m302.09 204.702h-92.18c-3.314 0-6-2.686-6-6v-38.749c0-3.314 2.686-6 6-6h92.18c3.314 0 6 2.686 6 6v38.749c0 3.313-2.687 6-6 6z" fill="#cdc3be"/></g><g><path d="m302.09 358.048h-92.18c-3.314 0-6-2.686-6-6v-107.496c0-3.314 2.686-6 6-6h92.18c3.314 0 6 2.686 6 6v107.496c0 3.313-2.687 6-6 6z" fill="#cdc3be"/></g><g><path d="m444.252 204.702h-92.179c-3.314 0-6-2.686-6-6v-38.749c0-3.314 2.686-6 6-6h92.179c3.314 0 6 2.686 6 6v38.749c0 3.313-2.687 6-6 6z" fill="#cdc3be"/></g><g><path d="m444.252 358.048h-92.179c-3.314 0-6-2.686-6-6v-107.496c0-3.314 2.686-6 6-6h92.179c3.314 0 6 2.686 6 6v107.496c0 3.313-2.687 6-6 6z" fill="#cdc3be"/></g><g><path d="m455.82 124.108v267.244h30v-267.278z" fill="#f0e6e1"/></g><g><path d="m498.5 88.35h-30c3.314 0 6 2.686 6 6l-7.832 22.287c-.845 2.403-3.114 4.011-5.661 4.011h30c2.547 0 4.816-1.608 5.661-4.011l7.832-22.287c0-3.314-2.687-6-6-6z" fill="#b46f3d"/></g><g><path d="m496.668 395.363c-.844-2.403-3.114-4.011-5.661-4.011h-30c2.547 0 4.816 1.608 5.661 4.011l7.832 22.287c0 3.314-2.686 6-6 6h30c3.314 0 6-2.686 6-6z" fill="#f0e6e1"/></g><g><path d="m159.927 153.952h-30c3.314 0 6 2.686 6 6v38.749c0 3.314-2.686 6-6 6h30c3.314 0 6-2.686 6-6v-38.749c0-3.313-2.686-6-6-6z" fill="#b9afaf"/></g><g><path d="m159.927 238.552h-30c3.314 0 6 2.686 6 6v107.496c0 3.314-2.686 6-6 6h30c3.314 0 6-2.686 6-6v-107.496c0-3.314-2.686-6-6-6z" fill="#b9afaf"/></g><g><path d="m302.089 153.952h-30c3.314 0 6 2.686 6 6v38.749c0 3.314-2.686 6-6 6h30c3.314 0 6-2.686 6-6v-38.749c0-3.313-2.686-6-6-6z" fill="#b9afaf"/></g><g><path d="m302.089 238.552h-30c3.314 0 6 2.686 6 6v107.496c0 3.314-2.686 6-6 6h30c3.314 0 6-2.686 6-6v-107.496c0-3.314-2.686-6-6-6z" fill="#b9afaf"/></g><g><path d="m444.251 153.952h-30c3.314 0 6 2.686 6 6v38.749c0 3.314-2.686 6-6 6h30c3.314 0 6-2.686 6-6v-38.749c0-3.313-2.686-6-6-6z" fill="#b9afaf"/></g><g><path d="m444.251 238.552h-30c3.314 0 6 2.686 6 6v107.496c0 3.314-2.686 6-6 6h30c3.314 0 6-2.686 6-6v-107.496c0-3.314-2.686-6-6-6z" fill="#b9afaf"/></g><g><circle cx="113.838" cy="179.327" r="7.5"/><circle cx="256" cy="179.327" r="7.5"/><circle cx="398.162" cy="179.327" r="7.5"/><path d="m503.743 392.876c-1.637-4.657-5.673-7.989-10.424-8.817v-256.117c4.752-.828 8.788-4.161 10.424-8.818l7.833-22.287c.28-.799.424-1.64.424-2.487 0-7.444-6.056-13.5-13.5-13.5h-436.752c-4.143 0-7.5 3.358-7.5 7.5s3.357 7.5 7.5 7.5h434.275l-6.08 17.298h-467.887l-6.079-17.298h15.772c4.143 0 7.5-3.358 7.5-7.5s-3.357-7.5-7.5-7.5h-18.249c-7.444 0-13.5 6.056-13.5 13.5 0 .847.144 1.688.424 2.487l7.832 22.286c1.635 4.658 5.672 7.991 10.424 8.82v256.117c-4.75.829-8.786 4.161-10.424 8.818l-7.832 22.287c-.28.798-.424 1.638-.424 2.485 0 7.444 6.056 13.5 13.5 13.5h376.992c4.143 0 7.5-3.358 7.5-7.5s-3.357-7.5-7.5-7.5h-374.515l6.079-17.298h467.889l6.079 17.298h-75.531c-4.142 0-7.5 3.358-7.5 7.5s3.358 7.5 7.5 7.5h78.007c7.444 0 13.5-6.056 13.5-13.5 0-.847-.143-1.688-.424-2.487zm-25.424-264.728v255.705h-444.639v-255.705z"/><path d="m67.748 212.202h92.18c7.444 0 13.5-6.056 13.5-13.5v-38.749c0-7.444-6.056-13.5-13.5-13.5h-92.18c-7.444 0-13.5 6.056-13.5 13.5v38.749c0 7.444 6.056 13.5 13.5 13.5zm1.5-50.75h89.18v35.749h-89.18z"/><path d="m67.748 365.548h92.18c7.444 0 13.5-6.056 13.5-13.5v-107.496c0-7.444-6.056-13.5-13.5-13.5h-92.18c-7.444 0-13.5 6.056-13.5 13.5v107.496c0 7.443 6.056 13.5 13.5 13.5zm1.5-119.496h89.18v104.496h-89.18z"/><path d="m209.91 212.202h92.18c7.444 0 13.5-6.056 13.5-13.5v-38.749c0-7.444-6.056-13.5-13.5-13.5h-92.18c-7.444 0-13.5 6.056-13.5 13.5v38.749c0 7.444 6.056 13.5 13.5 13.5zm1.5-50.75h89.18v35.749h-89.18z"/><path d="m209.91 365.548h92.18c7.444 0 13.5-6.056 13.5-13.5v-107.496c0-7.444-6.056-13.5-13.5-13.5h-92.18c-7.444 0-13.5 6.056-13.5 13.5v107.496c0 7.443 6.056 13.5 13.5 13.5zm1.5-119.496h89.18v104.496h-89.18z"/><path d="m352.072 212.202h92.18c7.444 0 13.5-6.056 13.5-13.5v-38.749c0-7.444-6.056-13.5-13.5-13.5h-92.18c-7.444 0-13.5 6.056-13.5 13.5v38.749c0 7.444 6.056 13.5 13.5 13.5zm1.5-50.75h89.18v35.749h-89.18z"/><path d="m352.072 365.548h92.18c7.444 0 13.5-6.056 13.5-13.5v-107.496c0-7.444-6.056-13.5-13.5-13.5h-92.18c-7.444 0-13.5 6.056-13.5 13.5v107.496c0 7.443 6.056 13.5 13.5 13.5zm1.5-119.496h89.18v104.496h-89.18z"/><path d="m133.946 282.524c-4.143 0-7.5 3.358-7.5 7.5v8.276c0 4.142 3.358 7.5 7.5 7.5 4.143 0 7.5-3.358 7.5-7.5v-8.276c0-4.142-3.357-7.5-7.5-7.5z"/><path d="m234.948 282.524c-4.143 0-7.5 3.358-7.5 7.5v8.276c0 4.142 3.357 7.5 7.5 7.5s7.5-3.358 7.5-7.5v-8.276c0-4.142-3.357-7.5-7.5-7.5z"/><path d="m374.53 282.524c-4.143 0-7.5 3.358-7.5 7.5v8.276c0 4.142 3.357 7.5 7.5 7.5s7.5-3.358 7.5-7.5v-8.276c0-4.142-3.357-7.5-7.5-7.5z"/></g></g></svg>