<svg id="Capa_1" enable-background="new 0 0 508.24 508.24" height="512" viewBox="0 0 508.24 508.24" width="512" xmlns="http://www.w3.org/2000/svg"><g><g><path d="m255.08 260.293h-208.917v-145.695c0-3.314 2.686-6 6-6h202.917z" fill="#d7f2fb"/></g><g><path d="m463.996 260.293h-208.916v-151.695h202.917c3.314 0 6 2.686 6 6v145.695z" fill="#d7f2fb"/></g><g><path d="m225.08 108.598h30v151.695h-30z" fill="#bce9f8"/></g><g><path d="m457.996 108.598h-30c3.314 0 6 2.687 6 6v145.695h30v-145.695c0-3.313-2.686-6-6-6z" fill="#bce9f8"/></g><g><path d="m78.592 399.642h-15.44c-3.972 0-6.848-3.79-5.778-7.615l19.871-71.092h35.481l-28.528 74.844c-.886 2.326-3.117 3.863-5.606 3.863z" fill="#f9ce78"/></g><g><path d="m431.568 399.642h15.44c3.972 0 6.848-3.79 5.779-7.615l-19.871-71.092h-35.481l28.528 74.844c.885 2.326 3.115 3.863 5.605 3.863z" fill="#f9ce78"/></g><g><path d="m495.685 151.702-33.708-5.385c-3.272-.523-6.349 1.706-6.871 4.978l-13.872 86.837c-.465 2.911-2.977 5.053-5.925 5.053h-362.377c-2.948 0-5.46-2.142-5.925-5.053l-13.872-86.837c-.523-3.272-3.599-5.501-6.871-4.978l-33.708 5.385c-3.272.523-5.501 3.599-4.978 6.871l20.127 125.99c.465 2.911 2.977 5.053 5.925 5.053h446.026v-.012l.075.012 20.934-131.044c.521-3.271-1.708-6.347-4.98-6.87z" fill="#d7f2fb"/></g><g><path d="m495.685 151.702-23.123-3.694-20.833 141.609h27.925v-.012l.075.012 20.934-131.044c.523-3.272-1.706-6.348-4.978-6.871z" fill="#bce9f8"/></g><g><path d="m451.654 289.617h.075l-.075-.013z" fill="#bce9f8"/></g><g><path d="m462.105 320.934h-413.661c-3.314 0-6-2.686-6-6v-25.317h425.661v25.317c0 3.314-2.686 6-6 6z" fill="#ffe7b9"/></g><path d="m496.868 144.296-25.372-4.053v-25.645c0-7.444-6.056-13.5-13.5-13.5h-283.705c-4.142 0-7.5 3.358-7.5 7.5s3.358 7.5 7.5 7.5h73.289v119.587h-173.369l-13.67-85.573c-.684-4.286-3.335-7.769-6.877-9.706v-24.309h90.628c4.142 0 7.5-3.358 7.5-7.5s-3.358-7.5-7.5-7.5h-92.129c-7.444 0-13.5 6.056-13.5 13.5v25.338l-27.291 4.36c-7.351 1.174-12.375 8.109-11.202 15.46l20.127 125.99c1.052 6.589 6.658 11.371 13.331 11.371h1.315v17.817c0 7.444 6.056 13.5 13.5 13.5h18.917l-17.21 61.573c-1.147 4.102-.328 8.401 2.247 11.794 2.575 3.394 6.495 5.34 10.754 5.34h15.439c5.563 0 10.633-3.493 12.615-8.691l26.687-70.016h184.679c4.143 0 7.5-3.358 7.5-7.5s-3.357-7.5-7.5-7.5h-252.627v-16.317h410.661v16.317h-128.032c-4.143 0-7.5 3.358-7.5 7.5s3.357 7.5 7.5 7.5h59.693l26.687 70.016c1.981 5.198 7.051 8.691 12.614 8.691h15.439c4.26 0 8.18-1.946 10.755-5.339 2.574-3.393 3.393-7.692 2.247-11.795l-17.211-61.573h19.307c7.444 0 13.5-6.056 13.5-13.5v-17.817h4.05.074c1.564 0 3.101-.49 4.387-1.417 1.618-1.167 2.705-2.93 3.02-4.9l20.935-131.045c1.173-7.349-3.852-14.284-11.202-15.458zm-419.309 247.846h-12.429l17.807-63.707h18.904zm367.471 0h-12.43l-24.282-63.707h18.905zm-182.45-276.044h193.916v23.434c-4.487 1.61-7.993 5.549-8.797 10.58l-13.67 85.573h-171.449zm210.751 166.019h-438.423l-19.689-123.245 30.746-4.912 13.636 85.355c1.052 6.588 6.659 11.371 13.331 11.371h362.376c6.671 0 12.277-4.781 13.332-11.37l13.636-85.356 30.745 4.912z"/></g></svg>