<svg id="Capa_1" enable-background="new 0 0 512 512" height="512" viewBox="0 0 512 512" width="512" xmlns="http://www.w3.org/2000/svg"><g><g><path d="m456.048 451.033h-35.175v-384.065c0-3.314 2.686-6 6-6h23.175c3.314 0 6 2.686 6 6z" fill="#b46f3d"/></g><g><path d="m93.823 451.033h-35.175v-384.065c0-3.314 2.686-6 6-6h23.175c3.314 0 6 2.686 6 6z" fill="#b46f3d"/></g><g><path d="m498.5 218.345h-485c-3.314 0-6-2.686-6-6v-29.399c0-3.314 2.686-6 6-6h485c3.314 0 6 2.686 6 6v29.399c0 3.314-2.686 6-6 6z" fill="#ffe7b9"/></g><g><path d="m498.5 451.033h-485c-3.314 0-6-2.686-6-6v-29.399c0-3.314 2.686-6 6-6h485c3.314 0 6 2.686 6 6v29.399c0 3.314-2.686 6-6 6z" fill="#ffe7b9"/></g><g><path d="m498.5 176.947h-30c3.314 0 6 2.686 6 6v29.399c0 3.314-2.686 6-6 6h30c3.314 0 6-2.686 6-6v-29.399c0-3.314-2.686-6-6-6z" fill="#f9d58e"/></g><g><path d="m498.5 409.634h-30c3.314 0 6 2.686 6 6v29.399c0 3.314-2.686 6-6 6h30c3.314 0 6-2.686 6-6v-29.399c0-3.313-2.686-6-6-6z" fill="#f9d58e"/></g><path d="m498.5 225.845c7.444 0 13.5-6.056 13.5-13.5v-29.399c0-7.444-6.056-13.5-13.5-13.5h-34.953v-102.478c0-7.444-6.056-13.5-13.5-13.5h-23.175c-7.444 0-13.5 6.056-13.5 13.5v102.479h-230.862c-4.142 0-7.5 3.358-7.5 7.5s3.358 7.5 7.5 7.5h314.49v26.399h-482v-26.399h137.51c4.142 0 7.5-3.358 7.5-7.5s-3.358-7.5-7.5-7.5h-51.187v-102.479c0-7.444-6.056-13.5-13.5-13.5h-23.175c-7.444 0-13.5 6.056-13.5 13.5v102.479h-37.648c-7.444 0-13.5 6.056-13.5 13.5v29.399c0 7.444 6.056 13.5 13.5 13.5h37.648v176.289h-37.648c-7.444 0-13.5 6.056-13.5 13.5v29.398c0 7.444 6.056 13.5 13.5 13.5h290.857c4.143 0 7.5-3.358 7.5-7.5s-3.357-7.5-7.5-7.5h-289.357v-26.398h482v26.398h-162.643c-4.143 0-7.5 3.358-7.5 7.5s3.357 7.5 7.5 7.5h164.143c7.444 0 13.5-6.056 13.5-13.5v-29.398c0-7.444-6.056-13.5-13.5-13.5h-34.953v-176.29zm-70.127-157.377h20.175v100.979h-20.175zm-362.225 0h20.175v100.979h-20.175zm347.225 157.377v176.289h-312.05v-176.289zm-347.225 0h20.175v176.289h-20.175zm382.399 176.29h-20.175v-176.29h20.175z"/></g></svg>