<svg id="Capa_1" enable-background="new 0 0 512 512" height="512" viewBox="0 0 512 512" width="512" xmlns="http://www.w3.org/2000/svg"><g><g><path d="m498.5 177.076h-242.5l-10 27.933 10 35.867h242.5c3.314 0 6-2.686 6-6v-51.8c0-3.314-2.686-6-6-6z" fill="#f7f2ed"/></g><g><path d="m13.5 177.076c-3.314 0-6 2.686-6 6v51.8c0 3.314 2.686 6 6 6h242.5v-63.8z" fill="#f0e6e1"/></g><g><path d="m226 177.076h30v63.8h-30z" fill="#e1d7d2"/></g><g><path d="m498.5 177.076h-30c3.314 0 6 2.686 6 6v51.8c0 3.314-2.686 6-6 6h30c3.314 0 6-2.686 6-6v-51.8c0-3.314-2.686-6-6-6z" fill="#e1d7d2"/></g><g><path d="m58.674 240.876h394.651v29.845h-394.651z" fill="#e0a57f"/></g><g><path d="m36.973 334.924h15.701c3.314 0 6-2.686 6-6v-88.048h-37.097l9.43 88.682c.324 3.051 2.898 5.366 5.966 5.366z" fill="#d68b56"/></g><g><path d="m475.027 334.924h-15.701c-3.314 0-6-2.686-6-6v-88.048h37.097l-9.43 88.682c-.324 3.051-2.898 5.366-5.966 5.366z" fill="#d68b56"/></g><g><path d="m498.5 169.576h-407.826c-4.142 0-7.5 3.358-7.5 7.5s3.358 7.5 7.5 7.5h157.826v48.8h-233.5v-48.8h45.674c4.142 0 7.5-3.358 7.5-7.5s-3.358-7.5-7.5-7.5h-47.174c-7.444 0-13.5 6.056-13.5 13.5v51.8c0 7.444 6.056 13.5 13.5 13.5h1.332l8.716 81.975c.732 6.883 6.503 12.073 13.424 12.073h15.701c7.444 0 13.5-6.056 13.5-13.5v-50.703h270.057c4.142 0 7.5-3.358 7.5-7.5s-3.358-7.5-7.5-7.5h-270.056v-14.845h379.651v14.845h-79.595c-4.142 0-7.5 3.358-7.5 7.5s3.358 7.5 7.5 7.5h79.595v50.703c0 7.444 6.056 13.5 13.5 13.5h15.701c6.922 0 12.693-5.191 13.424-12.073l8.717-81.975h1.332c7.444 0 13.5-6.056 13.5-13.5v-51.8c.001-7.444-6.055-13.5-13.499-13.5zm-235 15h233.5v48.8h-233.5zm-212.326 142.848h-12.852l-8.405-79.048h21.257zm422.504 0h-12.852v-79.048h21.258z"/><path d="m129.888 216.667c4.142 0 7.5-3.358 7.5-7.5s-3.358-7.5-7.5-7.5h-14.131c-4.142 0-7.5 3.358-7.5 7.5s3.358 7.5 7.5 7.5z"/><path d="m387.651 201.667h-14.131c-4.142 0-7.5 3.358-7.5 7.5s3.358 7.5 7.5 7.5h14.131c4.142 0 7.5-3.358 7.5-7.5s-3.358-7.5-7.5-7.5z"/></g></g></svg>