<svg id="Capa_1" enable-background="new 0 0 512.005 512.005" height="512" viewBox="0 0 512.005 512.005" width="512" xmlns="http://www.w3.org/2000/svg"><g><path d="m151.196 504.282c-6.085-1.217-10.032-7.136-8.815-13.222l48.348-223.001 31.475 6.293-57.898 221.618c-1.448 5.829-7.222 9.489-13.11 8.312z" fill="#e0a57f"/></g><g><path d="m361.19 504.282c6.085-1.217 10.032-7.136 8.815-13.222l-48.347-223-31.475 6.293 57.898 221.618c1.447 5.828 7.221 9.488 13.109 8.311z" fill="#e0a57f"/></g><g><path d="m371.407 201.375c-14.536-55.278-38.112-144.491-42.364-157.882-12.31-38.771-73.04-35.945-73.04-35.945s-60.73-2.826-73.04 35.945c-4.252 13.391-27.828 102.604-42.364 157.882-12.538 47.68 17.941 96.269 66.441 105.119 11.853 2.163 86.072 2.163 97.925 0 48.501-8.851 78.98-57.439 66.442-105.119z" fill="#f7f2ed"/></g><g><path d="m321.904 229.082h-135.567c-9.909 0-16.012 10.841-10.868 19.31 8.734 14.38 23.452 24.366 41.248 28.449 6.978 1.601 22.423 2.65 37.403 2.728 14.98-.078 30.425-1.127 37.403-2.728 17.796-4.083 32.514-14.069 41.249-28.449 5.144-8.469-.959-19.31-10.868-19.31z" fill="#e1d7d2"/></g><g><path d="m371.407 201.374c-14.536-55.278-38.112-144.491-42.364-157.882-12.31-38.771-73.04-35.945-73.04-35.945s-6.184-.285-15 .581c18.822 1.851 49.656 8.96 58.04 35.364 4.252 13.391 27.828 102.604 42.364 157.882 12.538 47.68-17.941 96.269-66.441 105.119-4.53.826-18.175 1.337-33.962 1.531 25.518.315 56.64-.196 63.962-1.531 48.5-8.85 78.979-57.438 66.441-105.119z" fill="#f0e6e1"/></g><g><path d="m321.904 229.082h-30c9.909 0 16.012 10.841 10.868 19.31-8.734 14.38-23.453 24.366-41.249 28.449-4.619 1.06-12.955 1.875-22.403 2.33 4.826.232 9.936.372 15 .398 14.98-.078 30.425-1.127 37.403-2.728 17.796-4.083 32.514-14.069 41.249-28.449 5.144-8.469-.959-19.31-10.868-19.31z" fill="#cdc3be"/></g><g><path d="m377.335 489.471-40.536-186.97c12.146-7.229 22.531-17.287 30.422-29.691 13.816-21.718 17.985-48.45 11.439-73.343-13.999-53.235-38.131-144.581-42.469-158.244-5.865-18.471-21.938-31.445-46.482-37.522-16.366-4.052-31.201-3.744-33.705-3.659-2.797-.096-20.865-.469-39.332 5.216-3.958 1.219-6.18 5.416-4.961 9.375s5.414 6.177 9.375 4.961c17.084-5.26 34.403-4.56 34.568-4.555.227.01.462.01.689.001.552-.026 55.142-2.06 65.551 30.722 4.239 13.35 28.296 104.421 42.259 157.52 5.487 20.865 1.992 43.273-9.589 61.477-11.631 18.283-29.724 30.484-50.945 34.356-11.125 2.031-84.108 2.031-95.233 0-21.222-3.872-39.314-16.073-50.945-34.356-11.581-18.204-15.076-40.612-9.589-61.477 13.966-53.107 38.027-144.189 42.259-157.519 1.586-4.995 4.279-9.456 8.005-13.261 2.898-2.959 2.849-7.707-.111-10.606-2.959-2.897-7.708-2.849-10.606.111-5.384 5.498-9.282 11.963-11.585 19.216-4.115 12.96-25.366 93.206-42.469 158.244-6.546 24.893-2.376 51.625 11.439 73.343 7.964 12.518 18.469 22.645 30.76 29.888l-40.493 186.774c-.009.039-.017.079-.025.118-.981 4.908.007 9.903 2.784 14.067 2.776 4.164 7.008 6.998 11.915 7.979 1.246.249 2.488.369 3.712.369 8.442 0 16.031-5.71 18.124-14.138l21.91-83.866 61.514-28.971 64.269 30.269 21.548 82.479c2.112 8.507 9.704 14.227 18.148 14.227 1.223 0 2.465-.12 3.709-.369 4.908-.981 9.14-3.815 11.917-7.979 2.776-4.165 3.765-9.16 2.784-14.068-.008-.039-.016-.078-.025-.118zm-121.332-173.863c13.573 0 27.141-.221 37.033-.663l8.274 31.669-46.335 21.829-44.167-20.802 8.538-32.68c9.858.431 23.254.647 36.657.647zm-98.977 178.555c-.482 1.942-2.395 3.158-4.359 2.764-1.32-.264-2.056-1.11-2.376-1.591-.317-.476-.808-1.463-.564-2.761l39.721-183.21c4.741 1.794 9.672 3.203 14.756 4.215zm41.385-99.071 8.539-32.686 30.425 14.329zm74.176-18.353 32.584-15.346 9.144 34.998zm89.509 118.597c-.32.481-1.056 1.327-2.377 1.591-1.958.396-3.876-.821-4.381-2.852l-47.174-180.566c5.082-1.032 10.008-2.466 14.745-4.281l39.751 183.347c.244 1.298-.247 2.286-.564 2.761z"/><path d="m289.846 269.531c-6.175 1.417-20.882 2.46-35.687 2.538-14.883-.078-29.59-1.121-35.765-2.538-15.969-3.664-28.937-12.554-36.516-25.033-1.426-2.348-.535-4.459-.086-5.258.45-.799 1.793-2.659 4.543-2.659h5.866c4.142 0 7.5-3.358 7.5-7.5s-3.358-7.5-7.5-7.5h-5.866c-7.401 0-13.986 3.852-17.616 10.304-3.629 6.45-3.503 14.076.338 20.399 9.7 15.971 26.03 27.288 45.981 31.866 8.935 2.05 26.615 2.853 39.119 2.918 12.426-.065 30.107-.868 39.041-2.918 19.952-4.578 36.282-15.895 45.981-31.866 3.841-6.324 3.967-13.95.338-20.4-3.63-6.452-10.215-10.304-17.616-10.304h-99.701c-4.142 0-7.5 3.358-7.5 7.5s3.358 7.5 7.5 7.5h99.701c2.751 0 4.094 1.859 4.543 2.659.449.799 1.34 2.91-.086 5.258-7.575 12.48-20.543 21.37-36.512 25.034z"/></g></svg>