<svg id="Capa_1" enable-background="new 0 0 512 512" height="512" viewBox="0 0 512 512" width="512" xmlns="http://www.w3.org/2000/svg"><g><g><path d="m78.377 311.756h354.53v83.344h-354.53z" fill="#6bbccb"/></g><g><path d="m407.907 7.5h-304.53c-13.807 0-25 11.193-25 25v279.256h354.53v-279.256c0-13.807-11.193-25-25-25z" fill="#6bbccb"/></g><g><path d="m82.073 311.756h350.834v83.344h-349.497" fill="#a1dee7"/></g><g><path d="m407.907 7.5h-30c13.807 0 25 11.193 25 25v279.256h30v-279.256c0-13.807-11.193-25-25-25z" fill="#5fa7b5"/></g><g><path d="m402.907 311.756h30v83.344h-30z" fill="#7acdd9"/></g><g><path d="m38.543 504.5h33.834c3.314 0 6-2.686 6-6v-259.525h-45.834v259.525c0 3.314 2.686 6 6 6z" fill="#e0a57f"/></g><g><path d="m439.623 504.5h33.834c3.314 0 6-2.686 6-6v-259.525h-45.834v259.525c0 3.314 2.686 6 6 6z" fill="#e0a57f"/></g><g><path d="m14.393 192.763h82.134c3.314 0 6 2.686 6 6v34.212c0 3.314-2.686 6-6 6h-82.134c-3.314 0-6-2.686-6-6v-34.212c0-3.314 2.686-6 6-6z" fill="#e0a57f"/></g><g><path d="m415.473 192.763h82.135c3.314 0 6 2.686 6 6v34.212c0 3.314-2.686 6-6 6h-82.135c-3.314 0-6-2.686-6-6v-34.212c0-3.314 2.686-6 6-6z" fill="#d68b56"/></g><g><path d="m455.457 238.975v259.525c0 3.314-2.686 6-6 6h24c3.314 0 6-2.686 6-6v-259.525z" fill="#d68b56"/></g><g><path d="m497.607 192.763h-30c3.314 0 6 2.686 6 6v34.212c0 3.314-2.686 6-6 6h30c3.314 0 6-2.686 6-6v-34.212c0-3.314-2.686-6-6-6z" fill="#ca7b44"/></g><path d="m14.393 192.763h82.134c3.314 0 6 2.686 6 6v34.212c0 3.314-2.686 6-6 6h-82.134c-3.314 0-6-2.686-6-6v-34.212c0-3.314 2.686-6 6-6z" fill="#d68b56"/><path d="m497.608 185.263h-57.2v-152.763c0-17.92-14.579-32.5-32.5-32.5h-251.821c-4.142 0-7.5 3.358-7.5 7.5s3.358 7.5 7.5 7.5h251.821c9.649 0 17.5 7.851 17.5 17.5v152.763h-9.935c-7.444 0-13.5 6.056-13.5 13.5v34.212c0 7.444 6.056 13.5 13.5 13.5h10.65v57.782h-340.246v-57.782h10.65c7.444 0 13.5-6.056 13.5-13.5v-34.212c0-7.444-6.056-13.5-13.5-13.5h-10.65v-152.763c0-9.649 7.851-17.5 17.5-17.5h22.71c4.142 0 7.5-3.358 7.5-7.5s-3.358-7.5-7.5-7.5h-22.71c-17.92 0-32.5 14.58-32.5 32.5v152.763h-56.485c-7.444 0-13.5 6.056-13.5 13.5v34.212c0 7.444 6.056 13.5 13.5 13.5h10.65v252.025c0 7.444 6.056 13.5 13.5 13.5h33.834c7.444 0 13.5-6.056 13.5-13.5v-95.9h218.48c4.143 0 7.5-3.358 7.5-7.5s-3.357-7.5-7.5-7.5h-218.479v-68.344h340.247v68.344h-91.767c-4.143 0-7.5 3.358-7.5 7.5s3.357 7.5 7.5 7.5h91.767v95.9c0 7.444 6.056 13.5 13.5 13.5h33.834c7.444 0 13.5-6.056 13.5-13.5v-252.025h10.65c7.444 0 13.5-6.056 13.5-13.5v-34.212c0-7.444-6.056-13.5-13.5-13.5zm-481.716 15h79.135v31.212h-79.135zm24.151 296.737v-250.525h30.834v250.525zm431.914 0h-30.834v-250.525h30.834zm24.151-265.525h-79.135v-31.212h79.135z"/></g></svg>