<svg id="Capa_1" enable-background="new 0 0 511.231 511.231" height="512" viewBox="0 0 511.231 511.231" width="512" xmlns="http://www.w3.org/2000/svg"><g><g><path d="m453.139 270.111h-445.639v-43.663c0-3.314 2.686-6 6-6h439.639z" fill="#ffe7b9"/></g><g><path d="m403.139 220.447-10 49.664h60v-49.664z" fill="#f9d58e"/></g><g><path d="m114.68 354.401h-59.737c-3.314 0-6-2.686-6-6v-22.193h71.737v22.193c0 3.314-2.686 6-6 6z" fill="#d1ac65"/></g><g><path d="m441.434 354.401h-59.737c-3.314 0-6-2.686-6-6v-22.193h71.737v22.193c0 3.314-2.686 6-6 6z" fill="#d1ac65"/></g><g><path d="m449.297 162.084-12.77 101.816c-.376 3.001-2.928 5.253-5.953 5.253h-417.074c-3.314 0-6 2.686-6 6v45.055c0 3.314 2.686 6 6 6h465.153c3.035 0 5.591-2.266 5.957-5.278l19.079-157.378c.433-3.574-2.356-6.722-5.956-6.722h-42.481c-3.026 0-5.578 2.252-5.955 5.254z" fill="#f9ce78"/></g><g><path d="m497.732 156.83h-30c3.6 0 6.39 3.148 5.956 6.722l-19.079 157.378c-.365 3.012-2.922 5.278-5.957 5.278h30c3.035 0 5.591-2.266 5.957-5.278l19.079-157.378c.434-3.573-2.356-6.722-5.956-6.722z" fill="#eac171"/></g><path d="m507.835 153.876c-2.561-2.889-6.243-4.546-10.104-4.546h-42.48c-6.792 0-12.551 5.082-13.395 11.82l-6.497 51.797h-306.43c-4.143 0-7.5 3.358-7.5 7.5s3.357 7.5 7.5 7.5h304.549l-4.228 33.706h-414.25v-33.706h83.929c4.143 0 7.5-3.358 7.5-7.5s-3.357-7.5-7.5-7.5h-85.429c-7.444 0-13.5 6.056-13.5 13.5v93.761c0 7.444 6.056 13.5 13.5 13.5h27.943v14.693c0 7.444 6.056 13.5 13.5 13.5h59.737c7.444 0 13.5-6.056 13.5-13.5v-14.693h132.09c4.143 0 7.5-3.358 7.5-7.5s-3.357-7.5-7.5-7.5h-245.27v-42.055h415.573c6.791 0 12.55-5.081 13.395-11.82l12.607-100.503h39.464l-18.715 154.378h-187.054c-4.143 0-7.5 3.358-7.5 7.5s3.357 7.5 7.5 7.5h77.928v14.693c0 7.444 6.056 13.5 13.5 13.5h59.737c7.444 0 13.5-6.056 13.5-13.5v-14.693h23.718c6.819 0 12.582-5.105 13.402-11.875l19.079-157.379c.464-3.833-.738-7.688-3.299-10.578zm-394.654 193.025h-56.738v-13.193h56.737v13.193zm326.754 0h-56.737v-13.193h56.737z"/></g></svg>