<svg id="Capa_1" enable-background="new 0 0 512 512" height="512" viewBox="0 0 512 512" width="512" xmlns="http://www.w3.org/2000/svg"><g><g><path d="m480.909 417.139h-22.184c-3.314 0-6-2.686-6-6v-276.03h34.184v276.031c0 3.313-2.687 5.999-6 5.999z" fill="#f0e6e1"/></g><g><path d="m191.922 417.139h-162.22c-3.314 0-6-2.686-6-6v-188.33h174.22v188.33c0 3.314-2.686 6-6 6z" fill="#f0e6e1"/></g><g><path d="m23.702 135.109h174.22v87.701h-174.22z" fill="#f0e6e1"/></g><g><path d="m498.5 135.109h-485c-3.314 0-6-2.686-6-6v-28.248c0-3.314 2.686-6 6-6h485c3.314 0 6 2.686 6 6v28.248c0 3.313-2.687 6-6 6z" fill="#ca7b44"/></g><g><path d="m167.922 222.809v188.33c0 3.314-2.686 6-6 6h30c3.314 0 6-2.686 6-6v-188.33z" fill="#e1d7d2"/></g><g><path d="m167.922 135.108h30v87.701h-30z" fill="#e1d7d2"/></g><g><path d="m498.5 94.861h-30c3.314 0 6 2.687 6 6v28.248c0 3.314-2.686 6-6 6h30c3.314 0 6-2.686 6-6v-28.248c0-3.314-2.686-6-6-6z" fill="#b46f3d"/></g><g><path d="m498.5 87.361h-333.065c-4.143 0-7.5 3.358-7.5 7.5s3.357 7.5 7.5 7.5h331.565v25.248h-482v-25.248h120.435c4.143 0 7.5-3.358 7.5-7.5s-3.357-7.5-7.5-7.5h-121.935c-7.444 0-13.5 6.056-13.5 13.5v28.248c0 7.444 6.056 13.5 13.5 13.5h2.702v268.531c0 7.444 6.056 13.5 13.5 13.5h66.311c4.143 0 7.5-3.358 7.5-7.5s-3.357-7.5-7.5-7.5h-64.811v-179.33h159.22v179.33h-64.409c-4.143 0-7.5 3.358-7.5 7.5s3.357 7.5 7.5 7.5h65.909c7.444 0 13.5-6.056 13.5-13.5v-268.532h239.803v268.531c0 7.444 6.056 13.5 13.5 13.5h22.184c7.444 0 13.5-6.056 13.5-13.5v-268.531h4.092c7.444 0 13.5-6.056 13.5-13.5v-28.248c-.001-7.443-6.057-13.499-13.501-13.499zm-308.078 127.948h-159.22v-72.701h159.22zm288.986 194.33h-19.184v-267.031h19.184z"/><path d="m97.139 296.535h27.348c4.143 0 7.5-3.358 7.5-7.5s-3.357-7.5-7.5-7.5h-27.348c-4.143 0-7.5 3.358-7.5 7.5s3.357 7.5 7.5 7.5z"/><path d="m97.139 327.474h27.348c4.143 0 7.5-3.358 7.5-7.5s-3.357-7.5-7.5-7.5h-27.348c-4.143 0-7.5 3.358-7.5 7.5s3.357 7.5 7.5 7.5z"/><path d="m97.139 182.989h27.348c4.143 0 7.5-3.358 7.5-7.5s-3.357-7.5-7.5-7.5h-27.348c-4.143 0-7.5 3.358-7.5 7.5s3.357 7.5 7.5 7.5z"/></g></g></svg>