<svg id="Capa_1" enable-background="new 0 0 512 512" height="512" viewBox="0 0 512 512" width="512" xmlns="http://www.w3.org/2000/svg"><g><g><path d="m476.193 238.415h-440.386v-129.603c0-12.992 10.532-23.523 23.523-23.523h393.34c12.991 0 23.523 10.532 23.523 23.523z" fill="#ca7b44"/></g><g><path d="m60.191 347.668-23.812 10.468 5.183 60.782c.376 4.408 4.063 7.794 8.487 7.794h20.285c4.424 0 8.111-3.386 8.487-7.794l5.184-60.782z" fill="#918c8c"/></g><g><path d="m456.5 347.668-23.812 10.468 5.184 60.782c.376 4.408 4.063 7.794 8.487 7.794h20.285c4.424 0 8.111-3.386 8.487-7.794l5.183-60.782z" fill="#918c8c"/></g><g><path d="m13.5 368.24h485c3.314 0 6-2.686 6-6v-42.248h-497v42.248c0 3.313 2.687 6 6 6z" fill="#b46f3d"/></g><g><path d="m427.196 161.717-5.834.675c-53.608 6.204-277.116 6.204-330.724 0l-5.834-.675c-11.685-1.352-20.922 9.725-17.491 20.977l7.227 23.706c.93 3.051.946 6.307.046 9.367l-7.885 26.808c-3.219 10.945 5.495 21.732 16.872 20.886l35.666-2.654c34.67-2.58 238.85-2.58 273.52 0l35.666 2.654c11.377.846 20.091-9.941 16.872-20.886l-7.885-26.808c-.9-3.06-.884-6.316.046-9.367l7.227-23.706c3.433-11.252-5.803-22.329-17.489-20.977z" fill="#fcf5f5"/></g><g><path d="m445.299 242.575-7.885-26.808c-.9-3.06-.884-6.316.046-9.367l7.227-23.706c3.431-11.252-5.806-22.329-17.491-20.977l-5.834.675c-3.92.454-8.755.874-14.36 1.261 6.368 3.56 10.058 11.257 7.685 19.041l-7.227 23.706c-.93 3.051-.946 6.307-.046 9.367l7.885 26.808c2.357 8.014-1.688 15.938-8.487 19.277l21.615 1.608c11.376.848 20.091-9.94 16.872-20.885z" fill="#f0e6e1"/></g><g><path d="m489.387 319.992h-466.773v-66.577c0-8.284 6.716-15 15-15h436.773c8.284 0 15 6.716 15 15z" fill="#ffe7b9"/></g><g><path d="m452.67 85.289h-30c12.992 0 23.523 10.532 23.523 23.523v129.603h30v-129.603c0-12.992-10.532-23.523-23.523-23.523z" fill="#b46f3d"/></g><g><path d="m474.5 319.992v42.248c0 3.314-2.686 6-6 6h30c3.314 0 6-2.686 6-6v-42.248z" fill="#ab6839"/></g><g><path d="m474.387 238.415h-30c8.284 0 15 6.716 15 15v66.577h30v-66.577c0-8.284-6.716-15-15-15z" fill="#f9ce78"/></g><path d="m504.5 312.492h-7.613v-59.077c0-9.088-5.419-16.929-13.193-20.476v-124.127c0-17.106-13.917-31.023-31.023-31.023h-393.34c-17.106 0-31.024 13.917-31.024 31.023v124.127c-7.774 3.547-13.193 11.388-13.193 20.476v59.077h-7.614c-4.143 0-7.5 3.358-7.5 7.5v42.248c0 7.444 6.056 13.5 13.5 13.5h16.853l3.737 43.815c.713 8.356 7.573 14.657 15.959 14.657h20.284c8.386 0 15.247-6.301 15.96-14.657l3.736-43.815h336.633l3.736 43.815c.713 8.356 7.574 14.657 15.96 14.657h20.284c8.386 0 15.247-6.301 15.96-14.657l3.736-43.815h12.162c7.444 0 13.5-6.056 13.5-13.5v-42.248c0-4.142-3.357-7.5-7.5-7.5zm-445.169-219.703h393.339c8.835 0 16.023 7.188 16.023 16.023v122.103h-19.006l-5.078-17.265c-.488-1.658-.479-3.409.024-5.063l7.228-23.706c2.352-7.712.673-16.013-4.49-22.205-5.164-6.192-13.023-9.337-21.037-8.409l-5.834.675c-52.272 6.048-276.727 6.048-328.999 0l-5.835-.675c-8.016-.926-15.874 2.217-21.036 8.409-5.164 6.192-6.843 14.493-4.491 22.206l7.228 23.707c.504 1.652.513 3.403.024 5.063l-5.077 17.264h-19.006v-122.104c0-8.835 7.188-16.023 16.023-16.023zm22.383 111.423-7.228-23.705c-.884-2.899-.277-5.897 1.664-8.225 1.94-2.328 4.784-3.466 7.791-3.115l5.835.675c54.373 6.292 278.075 6.292 332.448 0l5.834-.675c3.009-.352 5.85.787 7.792 3.115 1.94 2.328 2.547 5.326 1.663 8.225l-7.228 23.706c-1.361 4.466-1.385 9.193-.067 13.67l3.833 13.032h-356.102l3.832-13.031c1.318-4.48 1.295-9.207-.067-13.672zm-51.6 49.203c0-4.136 3.364-7.5 7.5-7.5h436.772c4.136 0 7.5 3.364 7.5 7.5v59.077h-451.772zm41.234 164.865c-.046.531-.481.931-1.015.931h-20.284c-.532 0-.968-.4-1.014-.931l-3.628-42.541h29.568zm396.309 0c-.046.531-.481.931-1.015.931h-20.284c-.533 0-.969-.4-1.015-.931l-3.628-42.541h29.568zm29.343-57.54h-482v-33.248h482z"/></g></svg>