<svg id="Capa_1" enable-background="new 0 0 512 512" height="512" viewBox="0 0 512 512" width="512" xmlns="http://www.w3.org/2000/svg"><g><g><path d="m481.663 366.778h-451.326c-3.314 0-6-2.686-6-6v-210.996h463.326v210.996c0 3.313-2.686 6-6 6z" fill="#f0e6e1"/></g><g><path d="m457.663 149.782v210.996c0 3.314-2.686 6-6 6h30c3.314 0 6-2.686 6-6v-210.996z" fill="#e1d7d2"/></g><g><path d="m141.107 149.782h33.734v216.996h-33.734z" fill="#e1d7d2"/></g><g><path d="m174.841 149.782h162.318v216.996h-162.318z" fill="#b9afaf"/></g><g><path d="m307.159 149.782h30v216.996h-30z" fill="#918c8c"/></g><g><path d="m498.5 149.782h-485c-3.314 0-6-2.686-6-6v-21.99c0-3.314 2.686-6 6-6h485c3.314 0 6 2.686 6 6v21.99c0 3.314-2.687 6-6 6z" fill="#e0a57f"/></g><g><path d="m76.238 396.208c-10.657 0-19.296-8.639-19.296-19.296v-10.134h38.591v10.134c0 10.657-8.639 19.296-19.295 19.296z" fill="#827d7d"/></g><g><path d="m432.547 396.208c-10.657 0-19.296-8.639-19.296-19.296v-10.134h38.591v10.134c0 10.657-8.639 19.296-19.295 19.296z" fill="#918c8c"/></g><g><path d="m498.5 108.292h-382.351c-4.142 0-7.5 3.358-7.5 7.5s3.358 7.5 7.5 7.5h380.851v18.99h-482v-18.99h71.149c4.142 0 7.5-3.358 7.5-7.5s-3.358-7.5-7.5-7.5h-72.649c-7.444 0-13.5 6.056-13.5 13.5v21.99c0 7.444 6.056 13.5 13.5 13.5h3.337v203.496c0 7.444 6.056 13.5 13.5 13.5h19.105v2.635c0 14.775 12.021 26.795 26.796 26.795s26.795-12.02 26.795-26.795v-2.635h131.79c4.142 0 7.5-3.358 7.5-7.5s-3.358-7.5-7.5-7.5h-52.482v-93.498h147.318v93.498h-64.835c-4.142 0-7.5 3.358-7.5 7.5s3.358 7.5 7.5 7.5h140.928v2.635c0 14.775 12.021 26.795 26.796 26.795s26.795-12.02 26.795-26.795v-2.635h22.321c7.444 0 13.5-6.056 13.5-13.5v-203.496h3.337c7.444 0 13.5-6.056 13.5-13.5v-21.99c-.001-7.444-6.057-13.5-13.501-13.5zm-331.159 48.99v93.498h-135.504v-93.498zm-79.308 219.63c0 6.504-5.291 11.795-11.796 11.795-6.504 0-11.795-5.292-11.795-11.795v-2.635h23.591zm79.308-17.634h-135.504v-93.498h135.504zm15-108.498v-93.498h147.318v93.498zm262.001 126.132c0 6.504-5.292 11.795-11.796 11.795s-11.795-5.292-11.795-11.795v-2.635h23.591zm-99.683-17.634v-93.498h135.504v93.498zm135.504-108.498h-135.504v-93.498h135.504z"/><path d="m86.149 196.718h17.647c4.142 0 7.5-3.358 7.5-7.5s-3.358-7.5-7.5-7.5h-17.647c-4.142 0-7.5 3.358-7.5 7.5s3.358 7.5 7.5 7.5z"/><path d="m103.796 209.059h-17.647c-4.142 0-7.5 3.358-7.5 7.5s3.358 7.5 7.5 7.5h17.647c4.142 0 7.5-3.358 7.5-7.5s-3.358-7.5-7.5-7.5z"/><path d="m86.149 305.904h17.647c4.142 0 7.5-3.358 7.5-7.5s-3.358-7.5-7.5-7.5h-17.647c-4.142 0-7.5 3.358-7.5 7.5s3.358 7.5 7.5 7.5z"/><path d="m103.796 318.245h-17.647c-4.142 0-7.5 3.358-7.5 7.5s3.358 7.5 7.5 7.5h17.647c4.142 0 7.5-3.358 7.5-7.5s-3.358-7.5-7.5-7.5z"/><path d="m247.176 196.718h17.647c4.142 0 7.5-3.358 7.5-7.5s-3.358-7.5-7.5-7.5h-17.647c-4.142 0-7.5 3.358-7.5 7.5s3.358 7.5 7.5 7.5z"/><path d="m264.823 209.059h-17.647c-4.142 0-7.5 3.358-7.5 7.5s3.358 7.5 7.5 7.5h17.647c4.142 0 7.5-3.358 7.5-7.5s-3.358-7.5-7.5-7.5z"/><path d="m247.176 305.904h17.647c4.142 0 7.5-3.358 7.5-7.5s-3.358-7.5-7.5-7.5h-17.647c-4.142 0-7.5 3.358-7.5 7.5s3.358 7.5 7.5 7.5z"/><path d="m247.176 333.245h17.647c4.142 0 7.5-3.358 7.5-7.5s-3.358-7.5-7.5-7.5h-17.647c-4.142 0-7.5 3.358-7.5 7.5s3.358 7.5 7.5 7.5z"/><path d="m408.204 196.718h17.647c4.142 0 7.5-3.358 7.5-7.5s-3.358-7.5-7.5-7.5h-17.647c-4.142 0-7.5 3.358-7.5 7.5s3.357 7.5 7.5 7.5z"/><path d="m425.851 209.059h-17.647c-4.142 0-7.5 3.358-7.5 7.5s3.358 7.5 7.5 7.5h17.647c4.142 0 7.5-3.358 7.5-7.5s-3.358-7.5-7.5-7.5z"/><path d="m425.851 290.904h-17.647c-4.142 0-7.5 3.358-7.5 7.5s3.358 7.5 7.5 7.5h17.647c4.142 0 7.5-3.358 7.5-7.5s-3.358-7.5-7.5-7.5z"/><path d="m425.851 318.245h-17.647c-4.142 0-7.5 3.358-7.5 7.5s3.358 7.5 7.5 7.5h17.647c4.142 0 7.5-3.358 7.5-7.5s-3.358-7.5-7.5-7.5z"/></g></g></svg>