<svg id="Capa_1" enable-background="new 0 0 512 512" height="512" viewBox="0 0 512 512" width="512" xmlns="http://www.w3.org/2000/svg"><g><g><path d="m376.814 86.208h-64.317v-78.708h47.106c9.505 0 17.211 7.706 17.211 17.211z" fill="#918c8c"/></g><g><path d="m359.603 7.5h-30c9.505 0 17.211 7.706 17.211 17.211v61.497h30v-61.497c0-9.505-7.706-17.211-17.211-17.211z" fill="#827d7d"/></g><g><path d="m218.051 430.303h-31.873v-19.541c0-8.801 7.135-15.936 15.936-15.936 8.801 0 15.936 7.135 15.936 15.936v19.541z" fill="#827d7d"/></g><g><path d="m262.988 504.5h-181.649c-3.314 0-6-2.686-6-6v-62.197c0-3.314 2.686-6 6-6h181.649c3.314 0 6 2.686 6 6v62.197c0 3.314-2.686 6-6 6z" fill="#cdc3be"/></g><g><circle cx="342.15" cy="152.299" fill="#f0e6e1" r="94.511"/></g><g><path d="m262.988 430.303h-30c3.314 0 6 2.686 6 6v62.197c0 3.314-2.686 6-6 6h30c3.314 0 6-2.686 6-6v-62.197c0-3.314-2.686-6-6-6z" fill="#b9afaf"/></g><g><path d="m342.15 57.788c-5.105 0-10.114.41-15 1.19 45.068 7.188 79.511 46.23 79.511 93.322s-34.444 86.134-79.511 93.322c4.886.779 9.895 1.189 15 1.189 52.197 0 94.511-42.314 94.511-94.511 0-52.198-42.314-94.512-94.511-94.512z" fill="#e1d7d2"/></g><path d="m384.314 59.417v-34.706c0-13.626-11.086-24.711-24.711-24.711h-116.128c-71.264 0-129.241 57.977-129.241 129.24v293.563h-32.895c-7.444 0-13.5 6.056-13.5 13.5v62.197c0 7.444 6.056 13.5 13.5 13.5h85.58c4.142 0 7.5-3.358 7.5-7.5s-3.358-7.5-7.5-7.5h-84.08v-59.197h178.649v59.197h-64.569c-4.142 0-7.5 3.358-7.5 7.5s3.358 7.5 7.5 7.5h66.069c7.444 0 13.5-6.056 13.5-13.5v-62.197c0-7.444-6.056-13.5-13.5-13.5h-37.437v-12.042c0-12.923-10.513-23.436-23.436-23.436s-23.437 10.513-23.437 23.436v12.042h-49.443v-293.563c0-62.992 51.248-114.24 114.24-114.24h61.522v42.282c-5.566 2.175-10.951 4.838-16.083 7.983-3.532 2.165-4.64 6.782-2.476 10.313 2.164 3.532 6.781 4.641 10.313 2.476 13.627-8.352 29.325-12.766 45.398-12.766 47.978 0 87.011 39.033 87.011 87.011s-39.033 87.011-87.011 87.011-87.011-39.033-87.011-87.011c0-20.042 6.977-39.602 19.648-55.079 2.624-3.205 2.153-7.93-1.052-10.554-3.207-2.624-7.931-2.153-10.554 1.052-14.858 18.15-23.042 41.085-23.042 64.581 0 56.249 45.762 102.011 102.011 102.011s102.011-45.762 102.011-102.011c.001-41.221-24.577-76.808-59.846-92.882zm-190.636 351.344c0-4.652 3.785-8.436 8.437-8.436s8.436 3.784 8.436 8.436v12.042h-16.873zm126.319-358.035v-37.726h39.605c5.354 0 9.711 4.356 9.711 9.711v29.255c-8.653-2.393-17.761-3.678-27.164-3.678-7.495 0-14.918.833-22.152 2.438z"/></g></svg>