<svg id="Capa_1" enable-background="new 0 0 510.265 510.265" height="512" viewBox="0 0 510.265 510.265" width="512" xmlns="http://www.w3.org/2000/svg"><g><g><path d="m263.88 502.765h-17.494c-3.314 0-6-2.686-6-6v-315.722h29.494v315.722c0 3.314-2.686 6-6 6z" fill="#b46f3d"/></g><g><path d="m238.523 120.216h34.663v43.053h-34.663z" fill="#b9afaf"/></g><g><path d="m289.025 193.145h-68.258v-23.877c0-3.314 2.686-6 6-6h56.258c3.314 0 6 2.686 6 6z" fill="#b46f3d"/></g><g><path d="m366.197 120.216h-220.686c-3.314 0-6-2.686-6-6v-100.716c0-3.314 2.686-6 6-6h220.686c3.314 0 6 2.686 6 6v100.716c0 3.313-2.686 6-6 6z" fill="#f0e6e1"/></g><g><path d="m366.197 7.5h-30c3.314 0 6 2.686 6 6v100.716c0 3.313-2.686 6-6 6h30c3.314 0 6-2.687 6-6v-100.716c0-3.314-2.686-6-6-6z" fill="#e1d7d2"/></g><g><path d="m155.835 502.765h-16.795c-4 0-6.879-3.839-5.76-7.679l88.002-301.941h33.53l-93.242 305.389c-.777 2.515-3.102 4.231-5.735 4.231z" fill="#d68b56"/></g><g><path d="m355.431 502.765h15.795c3.999 0 6.879-3.839 5.76-7.679l-88.002-301.941h-33.53l94.242 305.389c.778 2.515 3.102 4.231 5.735 4.231z" fill="#d68b56"/></g><path d="m384.184 492.976-87.693-299.14.035-24.567c0-7.444-6.056-13.5-13.5-13.5h-2.339v-28.053h85.511c7.444 0 13.5-6.056 13.5-13.5v-100.716c0-7.444-6.056-13.5-13.5-13.5h-149.52c-4.142 0-7.5 3.358-7.5 7.5s3.358 7.5 7.5 7.5h148.02v97.716h-217.686v-97.716h39.665c4.142 0 7.5-3.358 7.5-7.5s-3.358-7.5-7.5-7.5h-41.165c-7.444 0-13.5 6.056-13.5 13.5v100.716c0 7.444 6.056 13.5 13.5 13.5h15.013v46.711c0 4.142 3.358 7.5 7.5 7.5s7.5-3.358 7.5-7.5v-46.711h55.498v28.053h-4.256c-7.444 0-13.5 6.056-13.5 13.5l.03 24.47-66.589 228.471c-1.159 3.977 1.125 8.14 5.102 9.299.701.205 1.407.302 2.102.302 3.249 0 6.242-2.127 7.197-5.403l65.799-225.762h17.762l-89.945 294.62h-13.686l12.048-41.337c1.159-3.977-1.125-8.14-5.102-9.299-3.976-1.161-8.14 1.125-9.299 5.102l-12.607 43.257c-1.2 4.118-.413 8.448 2.162 11.879 2.574 3.431 6.51 5.399 10.799 5.399h16.795c5.959 0 11.142-3.825 12.907-9.541l64.144-210.108v206.149c0 7.444 6.056 13.5 13.5 13.5h17.494c7.444 0 13.5-6.056 13.5-13.5v-207.141l65.151 211.12c1.758 5.694 6.941 9.519 12.9 9.519h15.796c4.289 0 8.225-1.968 10.799-5.399 2.573-3.431 3.361-7.761 2.158-11.89zm-138.161-365.26h19.663v28.053h-19.663zm-17.756 43.052h53.258v14.877h-53.258zm34.113 324.497h-14.494v-253.745c0-.011-.002-.021-.002-.032l7.281-23.848 7.215 23.379zm94.158 0-79.486-257.572c-.007-.022-.013-.043-.02-.065l-11.413-36.983h17.237l86.368 294.62z"/></g></svg>